<svg xmlns="http://www.w3.org/2000/svg" version="1.1" xmlns:xlink="http://www.w3.org/1999/xlink" width="53.1" height="64.5"><svg id="SvgjsSvg1002" xmlns="http://www.w3.org/2000/svg" version="1.1" viewBox="0 0 53.1 64.5">
  <!-- Generator: Adobe Illustrator 29.5.1, SVG Export Plug-In . SVG Version: 2.1.0 Build 141)  -->
  <path d="M36.6,61.9c-.4.3-.8.5-1.2.5-1.4,0-2.5-2-2.5-4.7s.6-3.6,1.6-4.2l12.5-8-12.5-8c-1-.6-1.6-2.3-1.6-4.2s1.2-4.7,2.6-4.7.8.3,1.2.5l13.3,9.3c2,1.4,3.1,3.8,3.1,7.1s-1.1,5.8-3.1,7.1l-13.3,9.3h0Z"></path>
  <path d="M16.4,2.3c.4-.3.8-.5,1.2-.5,1.4,0,2.5,2,2.5,4.7s-.6,3.6-1.6,4.2l-12.5,8,12.5,8c1,.6,1.6,2.3,1.6,4.2s-1.2,4.7-2.6,4.7-.8-.3-1.2-.5L3.1,25.8c-2-1.4-3.1-3.8-3.1-7.1s1.1-5.8,3.1-7.1L16.4,2.3Z"></path>
  <path d="M30.8,3.8c.7-2.6,1.5-3.8,3-3.8s3.1,2.8,3.1,5.9-.2,2.5-.5,3.8l-13.4,51c-.7,2.7-1.5,3.8-3,3.8s-3.2-2.8-3.2-5.9.2-2.4.5-3.7L30.8,3.8Z"></path>
</svg><style>@media (prefers-color-scheme: light) { :root { filter: none; } }
@media (prefers-color-scheme: dark) { :root { filter: none; } }
</style></svg>