<svg xmlns="http://www.w3.org/2000/svg" xml:space="preserve" class="u-svg-content" viewBox="0 0 160 160"><path d="m114.3 152.3 38-38c-7.9 16.6-21.4 30.1-38 38zm2.8-143.2-108 108c.8 1.6 1.7 3.2 2.7 4.8l110-110c-1.5-1-3.1-1.9-4.7-2.8zM97.5 2 2 97.5c.4 2 1 4 1.5 5.9l99.9-99.9c-1.9-.6-3.9-1.1-5.9-1.5zM80 160c2 0 4-.1 5.9-.2l73.9-73.9c.1-2 .2-3.9.2-5.9v-1.9L78.1 160H80zm-45.1-13.9c1.5 1 3 2 4.6 2.9L149 39.5c-.9-1.6-1.9-3.1-2.9-4.6L34.9 146.1zm97.8-126.3L19.8 132.7c1.2 1.3 2.3 2.6 3.6 3.9L136.6 23.4l-3.9-3.6zM59.6 157.4l97.8-97.8c-.5-1.9-1.1-3.8-1.7-5.7L53.9 155.6c1.9.7 3.8 1.3 5.7 1.8zM7.6 45.9 45.9 7.6C29.1 15.5 15.5 29.1 7.6 45.9zM80 0c-2.6 0-5.1.1-7.6.4l-72 72c-.3 2.5-.4 5-.4 7.6v.2L80.2 0H80z"/></svg>
