<svg xmlns="http://www.w3.org/2000/svg" xml:space="preserve" viewBox="0 0 1000 1000"><path d="M908.3 990H765.4c-22.5 0-40.8-18.4-40.8-40.8 0-22.5 18.4-40.8 40.8-40.8h122.5c12.3 0 20.4-8.2 20.4-20.4V112.1c0-12.2-8.2-20.4-20.4-20.4H112.1c-12.2 0-20.4 8.2-20.4 20.4v775.8c0 12.3 8.2 20.4 20.4 20.4h326.7c22.5 0 40.8 18.4 40.8 40.8 0 22.5-18.4 40.8-40.8 40.8H91.7C46.8 990 10 953.3 10 908.3V91.7C10 46.8 46.8 10 91.7 10h816.7c44.9 0 81.7 36.8 81.7 81.7v816.7c-.1 44.9-36.8 81.6-81.8 81.6M406.1 463.2h128.6V355c0-126.6 77.6-196 189.9-196 53.1 0 100 4.1 114.3 6.1v130.7h-77.6c-61.3 0-73.5 28.6-73.5 71.5v93.9h147l-18.4 147H689.9V990H536.8V610.3H408.1v-147h-2z"/></svg>