<svg xmlns="http://www.w3.org/2000/svg" xml:space="preserve" viewBox="0 0 519.5 436.4"><style>.st0{fill:#3598db}</style><g id="_x32_"><path d="M80.3 232.4s.2.7.4 2.1c.3 1.3.7 3.3 1.1 5.8.5 2.5 1 5.6 1.5 9.1s1.1 7.5 1.5 11.8c.2 2.2.5 4.4.7 6.8.2 2.3.3 4.8.5 7.3s.3 5.1.4 7.7.2 5.3.2 8.1c0 5.5 0 11.2-.4 16.9-.1 1.4-.2 2.9-.2 4.3-.1 1.5-.3 2.9-.4 4.4s-.3 2.9-.4 4.4l-.1 1.1v.1c0 .2.1-.4-.1.5v.4l-.1.5-.2 1.1c0 .1-.1.5-.2.7l-.3.8c-.2.6-.4 1.1-.6 1.6s-.4.9-.7 1.4l-.7 1.3c-.3.4-.5.8-.8 1.2l-.8 1.2-.9 1.1-.9 1.1-1 1c-2.7 2.5-5.6 4.3-8.4 5.8s-5.6 2.6-8.3 3.7c-2.7 1-5.3 2-7.9 2.8-5.2 1.7-12 4.3-16.6 5.9-4.5 1.6-9.7 3.3-13.5 5s-7.1 3.6-10 5.4-5.3 3.7-7.2 5.2c-1.9 1.6-3.4 2.9-4.4 3.9-1 .9-1.5 1.5-1.5 1.5s.3-.7.9-1.9 1.6-3 3-5.2c1.5-2.1 3.4-4.7 6-7.3 2.5-2.6 5.7-5.4 9.4-8s8.9-5.1 13.4-7.5c4.5-2.3 11.4-5.5 16.4-7.6 2.4-1.1 5-2.1 7.4-3.3 1.2-.6 2.4-1.1 3.6-1.7l1.7-.9 1.7-.9c2.2-1.2 4.1-2.6 5.6-4.1l.6-.5.5-.6.5-.5.4-.6c.1-.2.3-.4.4-.6l.3-.6.3-.6c0-.1.1-.3.1-.4l.1-.2c0-.1.1-.1.1-.3l.2-1.1.1-.5.1-.3v-.1c-.1.8 0 .2-.1.3v-.1l.1-1c.2-1.4.3-2.8.5-4.2s.3-2.8.5-4.2c.1-1.4.3-2.8.4-4.2s.3-2.8.4-4.1c.2-1.4.3-2.7.4-4.1.2-2.7.4-5.4.7-8.1.8-10.7 1.5-20.7 2.1-29.3.4-4.3.7-8.3 1-11.8s.6-6.6.9-9.1.5-4.5.7-5.9c-.2-1.1-.1-1.9-.1-1.9m54.6-200.6s-1.6-1.2-4.8-3.2-8-4.7-14.3-7.5c-3.2-1.4-6.7-2.7-10.6-3.7s-8.1-1.9-12.6-2.1c-4.4-.2-9 .1-13.4 1.5-2.2.7-4.4 1.3-6.7 2-.6.2-1.1.4-1.7.6s-1.1.5-1.7.8c-.5.3-1.1.6-1.7.9-.5.3-1.1.7-1.6 1-4.3 2.8-8.3 6.7-12 11.3l-.4.5-.3.4-.6.8c-.4.5-.8 1.2-1.2 1.8s-.8 1.2-1.2 1.9-.8 1.3-1.1 2c-1.5 2.7-2.8 5.5-4.1 8.5-5 12-8.2 25.8-9.9 40.3s-2 29.7-.4 44.9 4.9 30.5 10.9 44.4c3.1 6.9 6.7 13.4 11.3 19s10 10.3 16 13.5c6.1 3.2 12.8 4.9 19.6 5.3 1.7.1 3.9.2 5.6.2h2.7l2.7-.1c3.6-.1 7-.5 10.3-1.1 3.2-.6 6.2-1.5 8.7-2.8s4.3-2.9 5.7-4.8c2.7-3.9 3.4-9.9 3-16.1-.4-6.3-1.5-12.7-2.8-18.9-1.3-6.3-2.6-12.4-3.9-18.4-.6-3-1.2-6-1.8-8.8-.3-1.4-.6-2.9-.9-4.3-.2-1.4-.3-2.9-.4-4.3-.3-5.7-.4-11.2-.2-16.3.3-10.3 2-19.1 4.1-26.1.5-1.8 1.1-3.4 1.6-4.9.6-1.5 1.1-2.9 1.7-4.2s1.1-2.5 1.7-3.5c.5-1.1 1-2 1.5-2.8.9-1.7 1.7-2.9 2.3-3.7.5-.8.8-1.3.8-1.3s-.2.5-.5 1.4c-.2.5-.3 1-.6 1.7-.2.7-.4 1.5-.7 2.4-1 3.6-2.2 9-2.7 15.9s-.1 15.2 1.4 24.5c.8 4.7 1.8 9.6 3.2 14.8.7 2.6 1.2 5.3 1.6 8.1s1 5.6 1.6 8.6c1.2 5.9 2.6 12 3.9 18.5s2.6 13.4 3 21c.2 3.8.2 7.8-.5 12s-2.2 8.8-4.9 12.9c-1.4 2-3.1 3.9-4.9 5.5-1.9 1.6-3.9 2.9-5.9 4-4.1 2.1-8.4 3.4-12.6 4.2s-8.3 1.1-12.4 1.3l-3.1.1h-3.1c-2.2 0-3.8-.1-6-.2-8.7-.5-17.6-2.7-25.5-7-8-4.2-14.8-10.3-20.4-17.1s-9.9-14.5-13.3-22.3c-6.8-15.7-10.3-32.3-12-48.6-1.6-16.3-1.4-32.5.4-48 1.9-15.5 5.3-30.4 10.9-44.1q2.1-5.1 4.8-9.9c.4-.8.9-1.6 1.4-2.4s.9-1.6 1.5-2.3c.5-.8 1-1.5 1.6-2.3l.9-1.2.4-.6.4-.5C47.1 19 52.2 14 58 10.2c.7-.5 1.4-1 2.2-1.4s1.5-.8 2.3-1.2c1.5-.8 3.1-1.5 4.6-2.2 3.1-1.4 6.3-2.3 9.5-2.6C83 2.2 89 3 94.3 4.3c10.5 2.8 18.3 7.7 24.2 12s9.9 8.3 12.6 11.1c1.3 1.4 2.3 2.5 2.9 3.3.6.7.9 1.1.9 1.1m65.4 60.9c0 6.2-5 11.2-11.2 11.2s-11.2-5-11.2-11.2 5-11.2 11.2-11.2 11.2 5 11.2 11.2M196 72.5s-.7 0-1.9-.1c-.6 0-1.3 0-2.1-.1-.8 0-1.7-.1-2.6-.1h-2.9c-1 0-2.1.1-3.1.2s-2.1.3-3 .5c-1 .3-1.9.5-2.7 1-.9.4-1.6.9-2.3 1.5s-1.4 1.3-2 2c-.3.4-.5.8-.9 1.2-.3.4-.5.8-.8 1.3-.3.4-.4.9-.7 1.3-.2.4-.4.8-.6 1.3l-.6 1.2c-.2.4-.3.8-.5 1.1-.3.7-.6 1.4-.8 1.9-.5 1.1-.8 1.7-.8 1.7s-.3-.6-.6-1.8c-.2-.6-.3-1.3-.4-2.1-.1-.4-.1-.9-.2-1.3v-1.5c0-1.1.1-2.2.3-3.4.1-.6.3-1.2.5-1.9.2-.6.5-1.3.8-1.9s.7-1.3 1.1-1.9c.2-.3.5-.6.7-.9s.5-.6.8-.9c1.1-1.2 2.5-2.1 3.9-2.8 1.5-.7 3-1.1 4.5-1.3.7-.1 1.5-.2 2.2-.2s1.4 0 2.1.1c1.4.2 2.6.4 3.8.8s2.2.8 3.1 1.2c1.9.9 3.3 1.9 4.2 2.7 1 .7 1.5 1.2 1.5 1.2" class="st0"/><path d="M138.1 326.6c0 5.5-2.2 10-5 10s-5-4.5-5-10 2.2-10 5-10 5 4.5 5 10" style="fill:#e3c87b"/><path d="M133.8 372.3c-12 19.1-18.7 25.6-21.7 27.8-2.1-9.5-.7-40.5 12-78.6 9.5-28.4 32.2-80.2 78.3-110.6l1.8.9c.7.3 1.4.6 2 .8 1.4.5 2.8 1.1 4.2 1.5 1.4.5 3 .7 4.5 1s3 .7 4.6 1 3.1.5 4.7.8c.8.1 1.6.3 2.4.4l2.4.3c1.6.2 3.3.4 5 .5s3.4.1 5.1.2c.9 0 1.7.1 2.6.1s1.7 0 2.6-.1c7 0 14.1-.8 21.4-2.2 7.3-1.3 14.6-3.4 21.8-6.2s14.4-6.2 21.2-10.5S322.1 190 328 184s11.2-12.8 15.4-20.4c1-2 2-3.9 2.9-5.9l1.2-3 .6-1.5.3-.8.1-.2s.2-.5.1-.4l.1-.4.9-2.9.5-1.4c.2-.5.3-1 .4-1.5l.8-3.4c.3-1.1.5-2.2.7-3.4.3-2.2.7-4.4.8-6.7 0-1 .1-2 .1-3 7.5-4.7 13.2-14.7 13.2-21.7 0-9.5-12.5-14.2-23.7-14.2h-5c-.6-.5-1.1-1-1.7-1.5-.4-.4-.8-.8-1.3-1.1l-1.3-1c-7-5.6-14.6-9.7-22.3-13.1s-15.5-5.9-23.2-8.2c-7.7-2.2-15.4-4.1-22.9-5.8-3.7-.8-7.5-1.7-11.1-2.5-1.8-.4-3.6-.8-5.5-1.2l-.3-.1h-.1l-.6-.2-1.3-.4-1.3-.4c-.2-.1-.5-.1-.6-.2l-.5-.2c-.7-.3-1.3-.5-2-.8-.3-.1-.7-.3-1-.5l-1.1-.5c-1.4-.6-2.8-1.5-4.1-2.3-2.7-1.8-5.2-3.7-7.6-5.9-4.8-4.3-9.3-9.2-13.6-14.1s-8.6-9.8-13.1-14.4c-2.2-2.3-4.6-4.4-6.9-6.5-2.3-2.2-4.8-4.1-7.6-5.5-5.4-3-11-5-16.5-6-2.7-.6-5.3-.7-7.9-.9-2.5.1-5 0-7.2.3-1.1.1-2.3.3-3.3.4-1.1.2-2.1.4-3.1.7-2 .4-3.9 1-5.7 1.5-7.1 2.2-12.1 4.9-15.5 6.7-3.3 1.9-5.1 2.9-5.1 2.9s2-.6 5.6-1.7c.5-.1.9-.3 1.4-.4s1.1-.3 1.6-.4c1.1-.3 2.4-.6 3.7-.9.3-.1.7-.2 1-.2.4-.1.7-.1 1.1-.2.7-.1 1.5-.2 2.2-.4.8-.1 1.6-.3 2.4-.4s1.7-.2 2.5-.3c1.7-.2 3.5-.4 5.4-.3h2.9c1 0 2 .2 3 .2 2 .1 4 .6 6.1.9 2.1.6 4.2 1 6.2 1.9 4.2 1.6 8.2 4 12.1 7.2l3 2.4c1 .8 2.1 1.5 3.1 2.4 1.1.9 2.1 1.7 3.1 2.7s2.1 1.9 3.1 3c4.1 4.1 8.2 8.8 12.6 13.8s9.1 10.2 14.7 15.2c2.8 2.5 5.9 4.9 9.2 7.1 1.7 1 3.4 2.1 5.3 3l1.4.7c.5.2.9.5 1.5.7 1 .4 2.1.8 3.2 1.2l.8.3c.2.1.5.1.7.2l1.3.4 1.3.4.7.2.5.1h.2l.3.1c1.8.4 3.6.8 5.5 1.2 3.6.8 7.3 1.6 11 2.5 7.4 1.7 14.8 3.5 22.2 5.6s14.7 4.6 21.7 7.6l2.6 1.2 2.6 1.2c1.7.8 3.3 1.8 5 2.6 3.2 1.9 6.4 3.9 9.2 6.2l1.1.8c.3.3.7.6 1 .9l2 1.8c1.2 1.3 2.5 2.6 3.5 4 1.1 1.3 2 2.8 2.9 4.3.7 1.5 1.6 3 2.1 4.6 2.6 6.3 2.7 13.5 1.6 20.7-.1.9-.3 1.8-.5 2.6l-.6 2.6c-.1.4-.2.9-.4 1.4l-.5 1.4-.9 2.9-.1.3-.1.2-.3.6-.5 1.3-1 2.6c-.7 1.7-1.6 3.3-2.4 4.9-7 12.9-18.1 23.4-30.2 31.1-6.1 3.9-12.5 7-19 9.4-6.5 2.5-13.1 4.4-19.6 5.5-6.5 1.2-12.9 1.9-19.2 1.9h-2.3c-.8 0-1.5-.1-2.3-.1-1.5-.1-3-.1-4.5-.2s-3-.3-4.4-.4c-.7-.1-1.5-.1-2.2-.2l-2.1-.3c-5.7-.7-10.9-2.6-16-3.8-.6-.1-1.3-.3-1.9-.4-.6-.2-1.2-.4-1.9-.5-1.2-.4-2.5-.7-3.7-1s-2.3-.8-3.5-1.2c-1.1-.4-2.3-.8-3.4-1.2-8.8-3.5-16.1-7.8-21.9-11.8-1.4-1-2.8-2-4-2.9-1.3-.9-2.3-1.9-3.4-2.8s-2-1.7-2.9-2.4-1.6-1.5-2.3-2.2c-2.8-2.7-4.3-4.1-4.3-4.1s1.1 1.7 3.2 5q.75 1.2 1.8 2.7c.7 1 1.5 2 2.4 3.1.4.6.9 1.2 1.3 1.8.5.6.9 1.3 1.5 1.8 1.1 1.2 2.3 2.5 3.5 3.8 1.2 1.4 2.6 2.7 4.1 4.1s3 2.9 4.8 4.3c.9.7 1.8 1.4 2.7 2.2.9.7 1.8 1.5 2.8 2.2 1.1.7 2.2 1.5 3.3 2.3-26.8 19.5-49.5 48.2-66 83.6-13.4 28.8-22.7 62.8-25.1 91-2.3 28.1 3.5 33.3 5.4 35.1 2.2 2 4.9 3 7.7 3 .7 0 1.5-.1 2.3-.2 5.7-1 14.1-5.7 29.7-36.3l16.4-39.1c.2-.9.5-1.9.9-2.9.3-1 .7-2.1 1.1-3.2s.9-2.1 1.4-3.1 1-2 1.6-2.8c.6.1 1.1.4 1.6.6.5.3 1 .4 1.5.4 1.8 0 3.5-.2 5.2-.7 1.7-.4 3.3-.8 5-1.2 1.1-.2 2.2-.5 3.2-.7s2-.5 2.9-.7l2.7-.6c.9-.2 1.8-.3 2.7-.4.6-.1 1.2-.1 1.8-.2s1-.1 1.4-.2l-.6 2.7c-.2.9-.4 1.8-.6 2.6s-.4 1.6-.6 2.3-.3 1.3-.4 1.8c-.1.4-.3 1.1-.6 1.8-.3.8-.6 1.6-1 2.5s-.8 1.9-1.2 2.9-.8 1.9-1.1 2.9c-.3.9-.6 1.7-.8 2.5-.2.7-.3 1.3-.3 1.7 0 .5.1.9.2 1.4.2.5.4.9.7 1.2.3.4.7.6 1.1.9.4.2 1 .3 1.5.3q1.5 0 2.4-.6t1.5-1.5c.4-.6.7-1.3.9-2s.4-1.5.6-2.2c.2-.4.4-1 .7-1.6.3-.7.5-1.4.8-2.2l.9-2.4c.3-.8.6-1.6.8-2.3q.3-1.05.6-1.8c.2-.5.3-.8.3-1l1.5-5.6c.3-1.4.7-3 1.1-4.7s.8-3.6 1.1-5.4c.3-1.9.6-3.8.9-5.8.2-2 .4-3.9.4-5.7q0-3.15-.6-6c-.4-1.9-1-3.5-1.9-4.9s-2.1-2.5-3.7-3.4q-2.25-1.2-5.7-1.2c-2.2 0-4.4.5-6.6 1.6s-4.4 2.5-6.5 4.2c-2.1 1.8-4.1 3.8-6.1 6-1.9 2.2-3.8 4.5-5.4 6.9-1.7 2.3-3.2 4.6-4.5 6.8-1.4 2.2-2.5 4.2-3.4 5.8-1.1 1.9-2.1 3.8-3.1 5.7s-1.8 3.8-2.5 5.6zm35.5-54c.2-.3.3-.7.5-1s.4-.6.5-.9c.2-.3.3-.5.4-.6q1.05-1.5 2.4-3.3c.9-1.2 1.8-2.3 2.8-3.5s2.1-2.3 3.2-3.4 2.3-2.1 3.5-2.9 2.4-1.5 3.6-2 2.5-.8 3.7-.8q1.5 0 2.4.9c.6.6 1 1.3 1.3 2.1s.4 1.7.5 2.6.1 1.7.1 2.5c0 .9 0 1.7-.1 2.6 0 .8-.1 1.6-.2 2.4-.1.7-.2 1.4-.3 2q-.15.9-.3 1.5c-.8.2-2.1.4-3.7.7q-2.4.45-5.4.9c-1.9.3-3.9.6-5.9.8s-3.8.3-5.3.3h-4.3c.3-.2.4-.5.6-.9" class="st0"/><path d="M263.2 317.1c.6 0 1.1.1 1.4.3.4.2.7.4.9.7s.4.7.4 1.1c.1.4.1.8.1 1.2 0 .9-.1 2-.4 3.5-.3 1.4-.7 2.9-1.1 4.5s-.9 3.2-1.4 4.7c-.5 1.6-.9 2.9-1.3 4.1-.2.7-.6 1.5-1 2.4s-.9 1.8-1.3 2.8c-.5.9-.9 1.8-1.3 2.5-.4.8-.6 1.4-.7 1.8-.1.3-.2.7-.2 1v1q0 1.5.9 2.4c.6.6 1.7.8 3.4.8.7 0 1.3-.2 1.9-.6.5-.4 1-1 1.4-1.6s.8-1.4 1.1-2.1c.3-.8.6-1.5.9-2.2 1.2-2.9 2.2-5.8 3.2-8.7s1.9-5.9 2.7-9.1c.3-1.3.6-2.6.8-4s.4-2.8.4-4.1c0-1.2-.1-2.4-.4-3.4-.3-1.1-.8-2-1.5-2.8s-1.7-1.5-2.9-1.9c-1.2-.5-2.7-.7-4.6-.7-1.2 0-2.5.2-3.8.6s-2.6.9-3.9 1.6c-1.3.6-2.6 1.4-3.9 2.2s-2.5 1.6-3.7 2.4c-.1-1.2-.3-2.1-.7-2.9s-.9-1.5-1.5-1.9c-.6-.5-1.3-.9-2-1.1s-1.5-.4-2.2-.4c-1.6 0-3.2.2-4.7.6s-3 1-4.5 1.7-2.9 1.5-4.2 2.4c-1.4.9-2.7 1.9-4 2.9.4-1.1.8-2.2 1.1-3.1.3-1 .5-1.9.5-2.8 0-.5-.1-1-.2-1.4s-.3-.8-.7-1.1c-.3-.3-.7-.5-1.2-.7s-1.2-.3-1.9-.3c-.4 0-.7.1-1.1.2s-.8.3-1.1.5c-.4.2-.7.4-1 .7q-.45.45-.6.9c-.2 1-.4 1.9-.4 2.8s-.2 1.8-.4 2.8c-.6 2.5-1.3 4.9-2 7.3s-1.4 4.9-2.1 7.4c-.7 2.6-1.5 5.2-2.3 8q-1.2 4.2-2.4 9c-.1.2-.1.4-.1.5v.5c0 1.1.4 1.9 1.2 2.6s1.9 1 3.1 1c.9 0 1.5-.3 2.1-.9q.75-.9 1.2-2.1c.3-.8.5-1.5.6-2.3s.2-1.3.2-1.6q.15-.9.3-2.1c.1-.8.3-1.8.6-2.9.1-.4.3-1.1.6-2.2s.6-2.3 1-3.5c.4-1.3.7-2.5 1.1-3.6s.6-1.9.9-2.3c2.1-2.1 3.9-3.9 5.5-5.3 1.6-1.5 3-2.7 4.3-3.7q1.95-1.5 3.6-2.1c1.1-.5 2.2-.7 3.4-.7q1.05 0 1.5.6c.3.4.4 1 .4 1.6 0 .4 0 .8-.1 1.3s-.2 1-.3 1.6c-.6 2.2-1.1 4.2-1.7 6.1-.6 1.8-1.2 3.7-1.8 5.5q-.9 2.7-1.8 5.7c-.6 2-1.2 4.2-1.9 6.7 0 .6.1 1.1.3 1.6s.5 1 .8 1.5c.3.4.7.8 1.2 1.1s1 .4 1.5.4c1.1 0 1.9-.2 2.5-.7s1-1.1 1.3-1.8q.45-1.05.6-2.4l.3-2.4c.1-.7.2-1.5.4-2.3.1-.8.3-1.6.5-2.4 0-.1.1-.4.3-1s.4-1.3.7-2.2.6-1.8.9-2.8.6-1.9 1-2.8c.3-.9.6-1.6.8-2.2s.4-1 .4-1.1c.5-.2 1.1-.5 1.6-1 .5-.4 1.1-1 1.7-1.6.8-.9 1.8-1.9 3-2.8 1.2-1 2.4-1.8 3.6-2.6q1.8-1.2 3.6-1.8c.8-.8 1.7-1 2.6-1m39.5 29.7c-.2 1.1-.3 2.1-.3 2.9 0 .4 0 .7.1 1s.3.5.5.7c.3.2.7.4 1.2.5s1.2.2 2.1.2c.7 0 1.2-.1 1.6-.4.4-.2.8-.5 1-.9.3-.3.5-.7.6-1.1q.15-.6.3-.9c.2-.9.4-1.8.5-2.8q.15-1.5.3-3.3l5.5-21.9c.2-.7.4-1.3.7-2q.3-.9.3-2.1c0-.5-.1-1-.2-1.5-.2-.5-.4-.9-.7-1.3s-.8-.7-1.3-.9c-.6-.2-1.2-.3-2.1-.3-.4 0-.9 0-1.3.1s-.9.2-1.6.3c-.6-.1-1.3-.2-2.1-.2-.8-.1-1.5-.1-2.1-.1-1.4 0-2.9.1-4.4.4s-2.9.9-4.4 2c-3.8 2.6-7 5.8-9.5 9.5-2.6 3.7-4.4 7.8-5.4 12.1-.2 1-.4 1.8-.6 2.6-.1.7-.2 1.5-.2 2.2 0 1.5.3 2.9 1 4.1.6 1.2 1.7 2.3 3.2 3.5.5.4 1.2.7 1.9 1 .7.2 1.5.4 2.4.4 1 0 2.1-.3 3.3-.8 1.2-.6 2.4-1.3 3.5-2.1 1.2-.8 2.3-1.7 3.4-2.6q1.65-1.35 3-2.4c.1 1.6 0 3-.2 4.1m-3.1-8.8q-1.8 1.8-3.6 3.3c-.9.7-1.8 1.3-2.8 1.8s-2.1.8-3.3.8q-1.05 0-1.5-.9c-.2-.6-.3-1.3-.3-2s.1-1.4.2-2.2c.1-.7.2-1.3.4-1.7.4-1.4.9-2.8 1.6-4.2q1.05-2.25 2.4-4.2c.9-1.4 2-2.7 3.1-3.9s2.4-2.2 3.6-3.1c1.3-.9 2.6-1.6 4-2.1s2.7-.8 4.1-.8c.5 0 .8.2 1 .5s.2.7.2 1.1c0 .8-.1 1.8-.2 2.8-.2 1.1-.3 2-.6 2.8q-.6 2.1-1.8 4.2c-.8 1.4-1.8 2.8-2.9 4.1-1.2 1.2-2.3 2.5-3.6 3.7m41.6-24.8c.1-.2.1-.4.1-.5 0-.9-.3-1.6-1-2-.7-.5-1.5-.7-2.6-.7-.8 0-1.6.2-2.3.5s-1.1.7-1.3 1.2c-.8 2.1-1.5 4-2.2 5.7s-1.3 3.4-1.9 5l-1.8 4.8q-.9 2.4-1.8 5.1c-.6 1.8-1.2 3.7-1.7 5.8-.6 2.1-1.2 4.5-1.8 7.1-.1.5-.2 1-.2 1.4v1.2c0 1.4.3 2.4 1 2.9s1.5.7 2.6.7c.2 0 .4 0 .7-.1.3 0 .6-.1 1-.3.3-.2.6-.4 1-.7.3-.3.5-.7.7-1.3q.3-1.35.6-2.4c.2-.7.3-1.4.4-2l.3-1.8c.1-.6.2-1.1.3-1.7.2-1.1.6-2.3.9-3.6.4-1.3.8-2.5 1.2-3.8.4-1.2.8-2.4 1.3-3.4.4-1 .8-1.9 1.2-2.5.6-.2 1.1-.5 1.7-1 .6-.4 1.1-.9 1.7-1.4q1.8-1.65 3.6-3c1.2-1 2.4-1.9 3.6-2.6 1.2-.8 2.3-1.4 3.4-1.8 1.1-.5 2.1-.7 3.1-.7s1.7.3 2.1 1 .6 1.4.6 2.3-.1 1.9-.4 3c-.2 1.1-.6 2.2-1 3.4s-.9 2.4-1.4 3.7-1 2.5-1.6 3.8c-.7 1.6-1.3 3.1-1.8 4.6-.6 1.5-1.1 3-1.5 4.3s-.8 2.6-1 3.7-.4 2.1-.4 2.8c0 .9.2 1.5.6 1.9s1.2.6 2.2.6c.7 0 1.3-.1 1.8-.2s.9-.4 1.3-.7.7-.7.9-1.3c.3-.5.5-1.2.8-1.9.9-2.8 1.8-5.6 2.9-8.4 1-2.8 2-5.4 2.9-7.9s1.6-4.8 2.2-7 .9-4.1.9-5.8c0-3-.7-5.2-2.2-6.6s-3.6-2.1-6.2-2.1c-1.3 0-2.6.2-4 .7-1.3.5-2.7 1.1-4 1.8s-2.6 1.6-3.9 2.5q-1.95 1.35-3.6 2.7l1.8-4.3c.1-.3.2-.5.2-.7m31.2 35.9c.9.9 2 1.5 3.2 1.9q1.8.6 3.6.6 1.5 0 3-.3c1-.2 2-.5 2.9-.8s1.8-.7 2.6-1.1 1.5-.8 2.2-1.1c.2-.1.6-.4 1.2-.7.5-.3 1.1-.7 1.7-1 .6-.4 1.2-.7 1.8-1.1s1-.6 1.4-.9c.2.4.3.8.4 1.3 0 .5.1.9.1 1.3s0 .8.1 1.2c0 .4.2.7.4 1s.6.5 1 .7 1.1.2 1.9.2c.7 0 1.3-.1 1.7-.2.5-.1.8-.3 1.1-.6s.5-.7.7-1.1c.2-.5.4-1 .5-1.7.4-1.5.5-3.1.5-4.6 0-1.2.1-2.7.2-4.5.1-1.7.3-3.5.5-5.2.2-1.8.4-3.4.6-5s.5-2.9.7-3.8l8.3-33.3c0-.8-.1-1.5-.4-1.9-.2-.5-.6-.9-1-1.2s-.9-.5-1.4-.6-1.1-.1-1.6-.1c-.8 0-1.4.2-2 .7s-1 1.1-1.3 1.9c-1.7 7.5-3.2 13.4-4.4 17.7-1.2 4.2-1.9 6.8-2.2 7.8-.6-.3-1.3-.5-2-.6-.7-.2-1.5-.2-2.4-.2-1.2 0-2.5.2-3.8.5s-2.6.8-3.8 1.4c-1.3.6-2.5 1.3-3.8 2.1-1.2.8-2.4 1.6-3.5 2.5-1.6 1.3-3.1 2.6-4.3 4s-2.3 2.8-3.2 4.3-1.6 2.9-2.2 4.4-1.1 3-1.4 4.5c-.2.8-.3 1.5-.4 2.1s-.1 1.3-.1 1.9c0 1.8.3 3.3.8 4.6.5 1 1.2 2.1 2.1 3m4.7-12.2c.4-1.6 1-3.2 1.9-4.6.9-1.5 1.9-2.8 3-4s2.4-2.3 3.7-3.3 2.7-1.8 4.1-2.5 2.8-1.2 4.1-1.6q1.95-.6 3.6-.6c.5 0 .8.1 1.1.2.2.2.4.3.6.5-.1 1.1-.3 2.1-.4 3s-.3 1.8-.5 2.7l-.6 2.7c-.2.9-.4 1.9-.7 3-.3 1.2-.8 2.3-1.3 3.3s-1.2 1.8-1.9 2.6-1.5 1.5-2.4 2.2-1.9 1.3-2.9 2c-.4.2-.9.5-1.4.8s-1.1.6-1.7.9-1.3.5-1.9.7q-.9.3-1.8.3c-1 0-1.8-.2-2.4-.5s-1.1-.7-1.5-1.3c-.4-.5-.6-1.1-.8-1.8-.1-.7-.2-1.5-.2-2.3q-.15-1.2.3-2.4m53.1-21.7c-.3-.2-.7-.3-1.2-.4-.4-.1-.9-.1-1.4-.1-.6 0-1.2.1-1.7.3s-.9.4-1.2.7-.5.5-.7.8q-.3.45-.3.6c-.6 2.3-1.2 4.8-1.9 7.3s-1.3 4.9-2 7.3-1.3 4.6-1.8 6.8c-.6 2.1-1.1 4-1.5 5.6l-1.2 4.9c-.1.1-.1.3-.1.4v.4q0 .75.3 1.5t.9 1.5c.4.4.9.8 1.4 1.1.6.3 1.2.4 1.9.4.4 0 .7-.1 1-.2.3-.2.5-.4.7-.6s.3-.5.5-.7c.1-.2.2-.5.2-.6 1.3-5 2.6-9.9 3.9-14.9 1.3-4.9 2.7-9.9 4-14.8l1.2-4.4v-.6c0-.4-.1-.8-.3-1.1-.1-.7-.4-1-.7-1.2m5.3-17.8c-.2-.3-.5-.6-.8-.9-.2-.2-.5-.4-.8-.6s-.6-.3-.8-.3c-.3 0-.7.1-1.4.3-.6.2-1.2.4-1.6.7-.9.7-1.5 1.4-1.9 2.2s-.6 1.5-.7 2.1c-.1.2-.1.4-.1.7 0 .2-.1.5-.1.8 0 .2 0 .4.1.6 0 .2.2.6.5 1 .5.7 1 1.2 1.3 1.4q.45.3 1.5.3c.5 0 1.1-.1 1.7-.3.7-.2 1.3-.5 1.9-.8s1.1-.8 1.6-1.2c.5-.5.8-1 1-1.6.1-.2.1-.5.2-.9s.1-.8.1-1.2c0-.6-.1-1.1-.3-1.6-.3-.4-.7-.6-1.4-.7m33.9 13.1c-1.3 0-2.6.2-4 .7-1.3.5-2.7 1.1-4 1.8s-2.6 1.6-3.9 2.5q-1.95 1.35-3.6 2.7l1.8-4.3c.1-.2.2-.5.2-.7.1-.2.1-.4.1-.5 0-.9-.3-1.6-1-2-.7-.5-1.5-.7-2.6-.7-.8 0-1.6.2-2.3.5s-1.1.7-1.3 1.2c-.8 2.1-1.5 4-2.2 5.7s-1.3 3.4-1.9 5l-1.8 4.8q-.9 2.4-1.8 5.1c-.6 1.8-1.2 3.7-1.7 5.8-.6 2.1-1.2 4.5-1.8 7.1-.1.5-.2 1-.2 1.4v1.2c0 1.4.3 2.4 1 2.9s1.5.7 2.6.7c.2 0 .4 0 .7-.1.3 0 .6-.1 1-.3.3-.2.6-.4 1-.7.3-.3.5-.7.7-1.3q.3-1.35.6-2.4c.2-.7.3-1.4.4-2l.3-1.8c.1-.6.2-1.1.3-1.7.2-1.1.6-2.3.9-3.6.4-1.3.8-2.5 1.2-3.8.4-1.2.8-2.4 1.3-3.4.4-1 .8-1.9 1.2-2.5.6-.2 1.1-.5 1.7-1 .6-.4 1.1-.9 1.7-1.4q1.8-1.65 3.6-3c1.2-1 2.4-1.9 3.6-2.6 1.2-.8 2.3-1.4 3.4-1.8 1.1-.5 2.1-.7 3.1-.7s1.7.3 2.1 1 .6 1.4.6 2.3-.1 1.9-.4 3c-.2 1.1-.6 2.2-1 3.4s-.9 2.4-1.4 3.7-1 2.5-1.6 3.8c-.7 1.6-1.3 3.1-1.8 4.6-.6 1.5-1.1 3-1.5 4.3s-.8 2.6-1 3.7-.4 2.1-.4 2.8c0 .9.2 1.5.6 1.9s1.2.6 2.2.6c.7 0 1.3-.1 1.8-.2s.9-.4 1.3-.7.7-.7.9-1.3c.3-.5.5-1.2.8-1.9.9-2.8 1.8-5.6 2.9-8.4 1-2.8 2-5.4 2.9-7.9s1.6-4.8 2.2-7 .9-4.1.9-5.8c0-3-.7-5.2-2.2-6.6s-3.6-2.1-6.2-2.1m49.8 29.2c-.2-.3-.6-.5-1.3-.5s-1.5.2-2.4.7-1.8 1-2.8 1.7c-.8.5-1.6 1.1-2.6 1.6q-1.35.75-3 1.5c-1.65.75-2.2.8-3.4 1.1s-2.4.4-3.7.4c-2.2 0-4-.4-5.3-1.3s-1.9-2.1-1.9-3.7c0-.7.1-1.5.3-2.2.2-.8.4-1.4.6-1.9 1.1-.1 2.5-.3 4-.5s3.2-.5 4.8-.9c1.7-.4 3.3-.9 5-1.5s3.2-1.3 4.6-2.2 2.7-1.9 3.7-3c1.1-1.2 1.8-2.5 2.2-4.1.2-.9.4-1.8.4-2.7 0-1.1-.2-2.1-.6-3.1s-1-1.8-1.7-2.5c-.8-.7-1.8-1.2-2.9-1.6q-1.8-.6-4.2-.6c-1.9 0-3.7.3-5.3 1-1.7.6-3.2 1.5-4.7 2.5s-2.8 2.1-4 3.4c-1.2 1.2-2.3 2.5-3.2 3.7s-1.7 2.3-2.4 3.4c-.6 1-1.1 1.9-1.4 2.5-1.1.3-1.9.8-2.5 1.7-.6.8-1 1.8-1 3 0 .6.2 1.1.5 1.4s.7.5 1 .6c-.4 1.6-.5 3.1-.5 4.4 0 1.6.2 3 .7 4.1s1 2.1 1.8 2.9c.7.8 1.6 1.4 2.5 1.9s1.9.8 2.9 1.1c1 .2 1.9.4 2.8.5s1.7.1 2.3.1c3.4 0 6.7-.5 9.7-1.5s6-2.6 8.9-4.9c.6-.5 1.2-1.1 1.6-1.9.4-.7.7-1.4.8-2.2 0-.1 0-.3.1-.5v-.6c-.1-.6-.2-1-.4-1.3m-21.1-12.3c.8-1.1 1.7-2.1 2.8-3.1 1-1 2.1-1.7 3.3-2.4 1.2-.6 2.4-1 3.6-1 .8 0 1.4.2 2 .6s.8.9.8 1.7v.4c0 .1 0 .2-.1.4-.2.8-.7 1.6-1.5 2.3s-1.8 1.3-3 1.9-2.7 1-4.3 1.4c-1.7.4-3.5.6-5.5.8.4-.9 1.1-1.9 1.9-3m-295.6 71.3c-.6-.6-1.2-1-2-1.3s-1.7-.5-2.7-.5c-.9 0-1.9.2-3.2.5-1.2.3-2.5.7-3.7 1.2s-2.4.9-3.4 1.3c-1.1.4-1.8.8-2.3 1-.2 0-.4 0-.7.1l-.9.3c-.3.1-.6.2-.8.3s-.4.1-.5.1c-.6.1-1.4.2-2.3.3s-1.8.3-2.7.7c-.9.3-1.6.8-2.3 1.5-.6.7-1 1.6-1 2.7 0 .6.1 1.1.2 1.6.2.5.4 1 .7 1.4q.45.6 1.2.9c.5.2 1 .4 1.6.4.2 0 .4-.1.7-.2s.6-.3.9-.4.6-.3.9-.4.6-.2.7-.2c.3-.1.8-.3 1.6-.5.8-.3 1.7-.6 2.8-1s2.2-.8 3.4-1.2 2.3-.8 3.4-1.2 2-.7 2.9-1 1.5-.5 1.8-.5c0 .1-.1.2-.1.3s-.1.2-.1.4c-.1.1-.1.3-.2.4-1.3 2.8-3 5.5-5 8.2-2 2.6-4.5 4.9-7.4 6.8-.9.6-1.9 1.2-3 1.9s-2.3 1.3-3.4 1.9c-1.2.6-2.3 1.1-3.5 1.5q-1.8.6-3.3.6c-1.5 0-2-.2-3-.6s-1.9-.9-2.8-1.4c-1.6-1.3-2.9-2.6-3.7-4-.9-1.3-1.3-3-1.3-4.8q0-3.45 1.5-7.2c1.5-3.75 2.4-5 4-7.4 1.7-2.4 3.6-4.8 5.8-7 2.2-2.3 4.5-4.3 6.9-6.2 2.4-1.8 4.8-3.4 7.3-4.7 2.4-1.3 4.7-2.2 6.9-2.6h1.1c.7 0 1.2.2 1.7.6s1 .9 1.5 1.3c.5.5 1 .9 1.6 1.3q.9.6 2.1.6c.3 0 .5 0 .8-.1s.4-.3.6-.6l-.1.1c.2-.3.5-.7.6-1.3.2-.6.3-.9.3-1.2.1-.6.2-1.1.2-1.5 0-1-.3-2-.8-2.9-.6-.9-1.3-1.6-2.2-2.2s-1.9-1.1-3-1.4-2.2-.5-3.4-.5c-1.4 0-2.9.2-4.3.6-1.5.4-2.9 1-4.4 1.6-1.4.7-2.8 1.4-4.2 2.2s-2.6 1.6-3.8 2.4c-2 1.3-3.9 2.9-5.9 4.6q-3 2.55-5.7 5.7c-1.8 2-3.5 4.2-5.1 6.4s-2.9 4.5-4.1 6.7c-1.2 2.3-2.1 4.5-2.7 6.7-.7 2.2-1 4.4-1 6.4 0 1.9.3 3.7.8 5.3s1.3 3.1 2.2 4.4 2.1 2.5 3.4 3.5 2.8 1.9 4.3 2.6c.3.1.6.3.9.4s.8.3 1.3.4 1.1.2 1.9.2c.7.1 1.7.1 2.7.1.5 0 1.1-.1 1.8-.2s1.4-.3 2.2-.4l2.1-.6c.7-.2 1.3-.4 1.7-.6 2.9-1.1 5.8-2.4 8.5-4.1 2.8-1.7 5.3-3.6 7.6-5.7 2.3-2.2 4.3-4.6 6-7.3s3-5.5 3.8-8.6q.15-.9.3-1.5c.1-.4.1-.8.1-1.2 0-.9-.1-1.7-.4-2.5 0-.5-.4-1.2-.9-1.7m44.3-5.7c-.4-.4-.9-.7-1.4-.8-.6-.2-1.2-.2-1.9-.2-1.1 0-1.8.2-2.3.6s-.8 1.1-1 2.2l-1.1 5.5c-.2.8-.4 1.9-.7 3.2s-.7 2.8-1.1 4.3q-.6 2.25-1.5 4.5c-.9 2.25-1.2 2.8-1.8 4l-1.1 1.9c-.6.9-1.3 2-2.1 3.1-.9 1.2-1.8 2.3-2.9 3.3s-2.2 1.9-3.4 2.6-2.4 1.1-3.5 1.1c-.7 0-1.2-.2-1.7-.6s-.9-.9-1.2-1.6c-.3-.6-.5-1.3-.7-2s-.2-1.4-.2-1.9c0-.6.1-1.4.4-2.6.3-1.1.7-2.6 1.2-4.4s1.2-4 2-6.5c.8-2.6 1.6-5.6 2.6-9 .2-.5.2-1.1.2-1.7 0-.8-.2-1.4-.5-2s-.8-.8-1.6-.9c-.4-.1-.8-.2-1.3-.2-.4-.1-.8-.1-1.2-.2s-.8-.1-1.1-.1c-.1 0-.3 0-.5.1s-.4.2-.6.4-.5.4-.7.8c-.2.3-.4.7-.5 1.1-.2.6-.4 1.4-.6 2.2s-.5 1.9-.8 3c-.3 1.2-.7 2.6-1.1 4.1-.4 1.6-.9 3.4-1.4 5.5-.2.7-.4 1.4-.6 2.3-.3.8-.5 1.7-.7 2.7s-.4 1.9-.6 3c-.2 1-.2 2-.2 3.1 0 1.8.3 3.6 1 5.4.6 1.8 1.7 3.4 3.2 4.8.3.3.8.6 1.3 1 .6.3 1.1.7 1.7.9.6.3 1.2.5 1.8.7s1 .3 1.4.3c1.8 0 3.5-.4 5-1.3 1.5-.8 3-1.9 4.2-3.1 1.3-1.2 2.5-2.6 3.6-4s2.1-2.7 3-3.9l.4-.1.5 7.8c0 .4.1.8.2 1.1.1.4.3.7.5 1 .3.3.6.5 1.1.7s1.1.3 1.9.3c1.2 0 2-.3 2.5-.8s.9-1.3 1.2-2.4c.1-.3.1-.7.2-1.2 0-.6.1-1.2.1-1.9 0-1.6 0-3.1-.1-4.5s-.1-2.8-.1-4.2c0-.8.1-1.8.2-2.8s.3-2.1.5-3.3c.2-1.1.4-2.3.7-3.4s.5-2.2.8-3.3c.4-1.7.8-3.5 1.2-5.2s.6-3.2.6-4.4c0-1-.1-1.9-.3-2.5-.5-.7-.8-1.2-1.1-1.6m47 0c-.4-.4-.9-.7-1.4-.8-.6-.2-1.2-.2-1.9-.2-1.1 0-1.8.2-2.3.6s-.8 1.1-1 2.2l-1.1 5.5c-.2.8-.4 1.9-.7 3.2s-.7 2.8-1.1 4.3q-.6 2.25-1.5 4.5c-.9 2.25-1.2 2.8-1.8 4l-1.1 1.9c-.6.9-1.3 2-2.1 3.1-.9 1.2-1.8 2.3-2.9 3.3s-2.2 1.9-3.4 2.6-2.4 1.1-3.5 1.1c-.7 0-1.2-.2-1.7-.6s-.9-.9-1.2-1.6c-.3-.6-.5-1.3-.7-2s-.2-1.4-.2-1.9c0-.6.1-1.4.4-2.6.3-1.1.7-2.6 1.2-4.4s1.2-4 2-6.5c.8-2.6 1.6-5.6 2.6-9 .2-.5.2-1.1.2-1.7 0-.8-.2-1.4-.5-2s-.8-.8-1.6-.9c-.4-.1-.8-.2-1.3-.2-.4-.1-.8-.1-1.2-.2s-.8-.1-1.1-.1c-.1 0-.3 0-.5.1s-.4.2-.6.4-.5.4-.7.8c-.2.3-.4.7-.5 1.1-.2.6-.4 1.4-.6 2.2s-.5 1.9-.8 3c-.3 1.2-.7 2.6-1.1 4.1-.4 1.6-.9 3.4-1.4 5.5-.2.7-.4 1.4-.6 2.3-.3.8-.5 1.7-.7 2.7s-.4 1.9-.6 3c-.2 1-.2 2-.2 3.1 0 1.8.3 3.6 1 5.4.6 1.8 1.7 3.4 3.2 4.8.3.3.8.6 1.3 1 .6.3 1.1.7 1.7.9.6.3 1.2.5 1.8.7s1 .3 1.4.3c1.8 0 3.5-.4 5-1.3 1.5-.8 3-1.9 4.2-3.1 1.3-1.2 2.5-2.6 3.6-4s2.1-2.7 3-3.9l.4-.1.5 7.8c0 .4.1.8.2 1.1.1.4.3.7.5 1 .3.3.6.5 1.1.7s1.1.3 1.9.3c1.2 0 2-.3 2.5-.8s.9-1.3 1.2-2.4c.1-.3.1-.7.2-1.2 0-.6.1-1.2.1-1.9 0-1.6 0-3.1-.1-4.5s-.1-2.8-.1-4.2c0-.8.1-1.8.2-2.8s.3-2.1.5-3.3c.2-1.1.4-2.3.7-3.4s.5-2.2.8-3.3c.4-1.7.8-3.5 1.2-5.2s.6-3.2.6-4.4c0-1-.1-1.9-.3-2.5-.4-.7-.7-1.2-1.1-1.6m22.3 4.7c-.3-.2-.7-.3-1.2-.4-.4-.1-.9-.1-1.4-.1-.6 0-1.2.1-1.7.3s-.9.4-1.2.7-.5.5-.7.8q-.3.45-.3.6c-.6 2.3-1.2 4.8-1.9 7.3s-1.3 4.9-2 7.3-1.3 4.6-1.8 6.8c-.6 2.1-1.1 4-1.5 5.6l-1.2 4.9c-.1.1-.1.3-.1.4v.4q0 .75.3 1.5t.9 1.5c.4.4.9.8 1.4 1.1.6.3 1.2.4 1.9.4.4 0 .7-.1 1-.2.3-.2.5-.4.7-.6s.3-.5.5-.7c.1-.2.2-.5.2-.6 1.3-5 2.6-9.9 3.9-14.9 1.3-4.9 2.7-9.9 4-14.8l1.2-4.4v-.6c0-.4-.1-.8-.3-1.1-.1-.8-.4-1-.7-1.2m5.3-17.8c-.2-.3-.5-.6-.8-.9-.2-.2-.5-.4-.8-.6s-.6-.3-.8-.3-.7.1-1.4.3c-.6.2-1.2.4-1.6.7-.9.7-1.5 1.4-1.9 2.2s-.6 1.5-.7 2.1c-.1.2-.1.4-.1.7 0 .2-.1.5-.1.8 0 .2 0 .4.1.6 0 .2.2.6.5 1 .5.7 1 1.2 1.3 1.4q.45.3 1.5.3c.5 0 1.1-.1 1.7-.3.7-.2 1.3-.5 1.9-.8s1.1-.8 1.6-1.2c.5-.5.8-1 1-1.6.1-.2.1-.5.2-.9s.1-.8.1-1.2c0-.6-.1-1.1-.3-1.6-.2-.4-.7-.6-1.4-.7m33.9 13.1c-1.3 0-2.6.2-4 .7-1.3.5-2.7 1.1-4 1.8s-2.6 1.6-3.9 2.5q-1.95 1.35-3.6 2.7l1.8-4.3c.1-.2.2-.5.2-.7.1-.2.1-.4.1-.5 0-.9-.3-1.6-1-2-.7-.5-1.5-.7-2.6-.7-.8 0-1.6.2-2.3.5s-1.1.7-1.3 1.2c-.8 2.1-1.5 4-2.2 5.7s-1.3 3.4-1.9 5l-1.8 4.8q-.9 2.4-1.8 5.1c-.6 1.8-1.2 3.7-1.7 5.8-.6 2.1-1.2 4.5-1.8 7.1-.1.5-.2 1-.2 1.4v1.2c0 1.4.3 2.4 1 2.9s1.5.7 2.6.7c.2 0 .4 0 .7-.1.3 0 .6-.1 1-.3.3-.2.6-.4 1-.7.3-.3.5-.7.7-1.3q.3-1.35.6-2.4c.2-.7.3-1.4.4-2l.3-1.8c.1-.6.2-1.1.3-1.7.2-1.1.6-2.3.9-3.6.4-1.3.8-2.5 1.2-3.8.4-1.2.8-2.4 1.3-3.4.4-1 .8-1.9 1.2-2.5.6-.2 1.1-.5 1.7-1 .6-.4 1.1-.9 1.7-1.4 1.2-1 2.4-2.1 3.6-3 1.2-1 2.4-1.9 3.6-2.6 1.2-.8 2.3-1.4 3.4-1.8 1.1-.5 2.1-.7 3.1-.7s1.7.3 2.1 1 .6 1.4.6 2.3-.1 1.9-.4 3c-.2 1.1-.6 2.2-1 3.4s-.9 2.4-1.4 3.7-1 2.5-1.6 3.8c-.7 1.6-1.3 3.1-1.8 4.6-.6 1.5-1.1 3-1.5 4.3s-.8 2.6-1 3.7-.4 2.1-.4 2.8c0 .9.2 1.5.6 1.9s1.2.6 2.2.6c.7 0 1.3-.1 1.8-.2s.9-.4 1.3-.7.7-.7.9-1.3c.3-.5.5-1.2.8-1.9.9-2.8 1.8-5.6 2.9-8.4 1-2.8 2-5.4 2.9-7.9s1.6-4.8 2.2-7 .9-4.1.9-5.8c0-3-.7-5.2-2.2-6.6s-3.5-2.1-6.2-2.1m34.5-13.1c-.2-.3-.5-.6-.8-.9-.2-.2-.5-.4-.8-.6s-.6-.3-.8-.3c-.3 0-.7.1-1.4.3-.6.2-1.2.4-1.6.7-.9.7-1.5 1.4-1.9 2.2s-.6 1.5-.7 2.1c-.1.2-.1.4-.1.7 0 .2-.1.5-.1.8 0 .2 0 .4.1.6 0 .2.2.6.5 1 .5.7 1 1.2 1.3 1.4q.45.3 1.5.3c.5 0 1.1-.1 1.7-.3.7-.2 1.3-.5 1.9-.8s1.1-.8 1.6-1.2c.5-.5.8-1 1-1.6.1-.2.1-.5.2-.9s.1-.8.1-1.2c0-.6-.1-1.1-.3-1.6-.3-.4-.7-.6-1.4-.7m-5.3 17.8c-.3-.2-.7-.3-1.2-.4-.4-.1-.9-.1-1.4-.1-.6 0-1.2.1-1.7.3s-.9.4-1.2.7-.5.5-.7.8q-.3.45-.3.6c-.6 2.3-1.2 4.8-1.9 7.3s-1.3 4.9-2 7.3-1.3 4.6-1.8 6.8c-.6 2.1-1.1 4-1.5 5.6l-1.2 4.9c-.1.1-.1.3-.1.4v.4q0 .75.3 1.5t.9 1.5c.4.4.9.8 1.4 1.1.6.3 1.2.4 1.9.4.4 0 .7-.1 1-.2.3-.2.5-.4.7-.6s.3-.5.5-.7c.1-.2.2-.5.2-.6 1.3-5 2.6-9.9 3.9-14.9 1.3-4.9 2.7-9.9 4-14.8l1.2-4.4v-.6c0-.4-.1-.8-.3-1.1-.1-.8-.4-1-.7-1.2m34.9-4c-.6-.4-1.2-.7-2-.8-.8-.2-1.6-.2-2.6-.2-.9 0-1.8.1-2.6.3-.9.2-1.6.5-2.4.9-2.2 1.2-4.2 2.7-6.1 4.5s-3.5 3.8-5 6-2.7 4.4-3.8 6.7c-1 2.3-1.8 4.5-2.3 6.7-.3 1.2-.5 2.3-.7 3.3-.2 1.1-.2 2.1-.2 3 0 2.2.5 4.2 1.5 5.8s2.7 2.9 4.9 3.9c.4.2.8.3 1.4.4s1 .1 1.4.1c1.2 0 2.7-.2 4.4-.7 1.8-.5 3.5-1.1 5.2-2.1.9-.4 1.8-.9 2.8-1.5.9-.5 1.8-1.1 2.6-1.8s1.6-1.4 2.2-2.3c.7-.9 1.2-1.8 1.6-2.9.2-.4.2-.8.2-1.2 0-.5-.2-.8-.5-1.1-.4-.2-.7-.3-1.2-.3-.3 0-.7.1-1.1.3s-.8.4-1.3.7-1 .6-1.5 1-1.1.7-1.6 1c-.8.5-1.7 1-2.5 1.6-.9.5-1.8 1-2.7 1.3-.9.4-1.8.7-2.8 1-1 .2-1.9.4-2.9.4q-.9 0-1.5-.3c-.4-.2-.7-.5-1-.9-.2-.4-.4-.8-.5-1.3s-.1-1-.1-1.6c0-.8.1-1.6.2-2.5.2-.8.3-1.6.5-2.3.2-.9.6-1.9 1-3s.9-2.2 1.5-3.3 1.2-2.3 1.9-3.4 1.5-2.2 2.3-3.2 1.8-1.9 2.7-2.7c1-.8 2-1.5 3.1-2 .3.1.6.2.8.4.2.1.5.3.7.4.5.3 1 .5 1.5.7s1.1.3 1.7.3c.8 0 1.5-.2 2-.5.6-.3 1.1-.8 1.5-1.3q.6-.75.9-1.8c.2-.7.3-1.3.3-2 0-.9-.2-1.6-.5-2.2-.4-.6-.9-1.1-1.4-1.5" class="st0"/><path d="M76.2 278.9s-20.3 11.2-9.1 28.1c11.2 16.8 49.9 35.7 68.6 16.9 9.3-11.7-2.1-27.8-2.1-27.8-4.3 11.7-5.2 11.5-6.8 17.5C117 325.7 75.3 293 75.3 293z" style="fill:#0887cc"/></g></svg>