<?xml version="1.0" encoding="UTF-8"?>
<svg enable-background="new 0 0 312.8 143.4" version="1.1" viewBox="0 0 312.8 143.4" xml:space="preserve" xmlns="http://www.w3.org/2000/svg" xmlns:xlink="http://www.w3.org/1999/xlink">
<style type="text/css">
	.st0{fill:#66C6DE;}
	.st1{fill:#3D3D3D;}
</style>
    <image transform="translate(-3.7832 -.8081)" width="320" height="161" display="none" overflow="visible" xlink:href="logo.png">
</image>
    <path class="st0" d="m11.6 42.4s-9.2 33.6 124.9 40.9l82.3-82.2c0.1 0-185.2-11.8-207.2 41.3z"/>
    <path class="st1" d="m11.6 42.4s-1.9 34.6 124.9 40.9l-13.3 12.4c0.1 0.1-128-3-111.6-53.3z"/>
    <polygon class="st1" points="280.5 45.9 235.8 45.9 193.9 85.6 243.6 85.6"/>
    <polygon class="st1" points="273.8 2.2 228.9 2.2 189.5 41.9 233.7 41.9"/>

    <path d="m18.9 122.6h-0.5c-1-3.2-3.7-7.9-8.6-7.9-3.5 0-6 2.8-6 5.8 0 3.3 2.4 4.6 7.9 6.5 3.9 1.3 8.5 3.6 8.5 8.3 0 3-2.1 8-10.3 8-5.3 0-7.1-1.8-7.7-1.8-0.4 0-0.7 0.4-1.2 1.4h-0.5l-0.5-7.6h0.5c1.6 5 4.8 7.3 8.8 7.3 4.2 0 6.9-2.7 6.9-5.8 0-2.2-1.2-3.6-5.4-5.2-6.7-2.4-10.8-4.4-10.8-9.3 0-4 3.1-8.4 9.5-8.4 3.6 0 6.2 1.4 7.5 2.1 0.2-0.3 0.5-0.7 0.9-1.3h0.5l0.5 7.9z"/>
    <path d="m34.9 114.6v0.5c-4.1 0.3-4.3 2.3-4.3 5.3v16.4c0 4 1.8 5.2 5.1 5.2h1.1c5.4 0 8.8-1.4 12-7.9h0.5l-2.5 8.7h-23.9v-0.5c3.1-0.4 3.6-2.1 3.6-4.3v-17.3c0-3.3-0.6-5.4-3.6-5.6v-0.5h12z"/>
    <path d="m92.4 123.7h-0.7c-2-5.7-5.6-8.9-10.7-8.9-4.4 0-11.6 3.1-11.6 13.6 0 9.3 5.7 14.1 11.8 14.1 5.3 0 9.8-3.6 10.7-9.2h0.5l0.2 8.8h-0.6c-0.4-0.8-0.9-1.4-1.3-1.8-2.6 2.1-5.9 3-10.2 3-11.8 0-15.6-8.1-15.6-14.5 0-8.5 6-14.9 15.7-14.9 4.3 0 6.9 1.2 9.6 2.7l1.4-1.7h0.4l0.4 8.8z"/>
    <path d="m107.8 114.6c7.7 0 10 4.1 10 7.7 0 5.2-4.5 6.8-6.6 7.3 1 0.4 2.1 1.2 4.4 4.8 0.4 0.7 2.3 3.6 2.7 4.2 2.6 3.5 4.8 3.5 5.6 3.6v0.5h-7.6c-1.4-1.6-2-2.4-3-3.9l-2-3.1c-1.1-1.8-3.8-5.9-6.9-5.9h-1.4v7.7c0 3.6 0.5 4.5 3.8 4.8v0.5h-10.9v-0.5c2.9-0.4 2.9-2.7 2.9-4.4v-18.7c0-1.7 0-4.1-3.9-4.1v-0.5h12.9zm-4.8 14.3h3.4c3.4 0 7.3-2.2 7.3-6.8 0-3.7-2.3-6.7-8.1-6.7h-1.1c-1.2 0-1.5 0.1-1.5 1.3v12.2z"/>
    <path d="m146.6 114.6 1.8 5.7h-0.6c-1.6-2.6-3.4-5-10-5h-3c-1.4 0-1.8 0.2-1.8 2.1v10.6h2.5c3.2 0 5.2-0.4 6.4-5.4h0.5v11.4h-0.4c-1-3.9-2.5-5.2-6.4-5.2h-2.6v8.1c0 3 0.3 5 5.2 5 5.4 0 7.7-0.8 10.5-6.4h0.5l-1.1 7.2h-22.7v-0.5c2.5-0.3 3.4-1.3 3.4-4.8v-18.8c0-2.8-0.8-3.5-3.4-3.6v-0.5h21.2z"/>
    <path d="m175.8 136.9c0.6 1.5 2.2 5 4.8 5.3v0.5h-12.5v-0.5c3.6-0.2 4.6-1.7 2.9-5.8l-1.9-4.6h-10.7l-1.7 4.3c-1.4 3.6-1.1 5.6 2.1 6.2v0.5h-8.1v-0.5c1.9-1.2 3.4-2.3 4.8-5.9l7.1-17.5c0.3-0.7 0.5-1.2 0.2-2 1.1-0.7 2-1.3 3-2.6h0.4l9.6 22.6zm-11.9-18.2-5 12.3h10.1l-5.1-12.3z"/>
    <path d="m208.2 121.2h-0.7c-3-4.9-5.2-5.8-10.1-5.8h-2.4v21.7c0 3.8 0.7 4.5 3.3 5.2v0.5h-10.8v-0.5c2.7-0.5 3.3-1.4 3.3-5.1v-21.7h-2.7c-4.2 0-6.9 0.8-9.8 5.8h-0.7l1.6-7.5h0.6c1.2 0.7 2.6 1 5.8 1h15.1c2.7 0 3.6-0.2 5.2-1h0.6l1.7 7.4z"/>
    <path d="m222.6 142.7h-12.7v-0.5c4-0.5 4.3-1.8 4.3-5.1v-17c0-3.4-0.3-4.6-4.3-5.1v-0.5h12.7v0.5c-4 0.5-4.3 1.8-4.3 5.1v17c0 3.4 0.3 4.6 4.3 5.1v0.5z"/>
    <path d="m255.3 128.8c0 7.9-6.2 14.5-15.1 14.5-7.5 0-14.8-5-14.8-15.2 0-6.5 4.6-14.3 15.2-14.3 8.9 0.1 14.7 6.3 14.7 15zm-25.5-0.5c0 6.1 3.2 14.2 10.3 14.2 7.9 0 10.7-7.8 10.7-13.7 0-7.2-3-14-10.1-14-7.7 0-10.9 8.7-10.9 13.5z"/>
    <path d="m264.5 114.6 20.5 21.5v-14.4c0-5.9-2.6-6.4-5.3-6.7v-0.5h10.3v0.5c-3.4 0.2-3.9 2.6-3.9 6.6v21.4h-0.4l-22.9-24.1v16.2c0 4.5 1.6 6.4 4.4 6.9v0.5h-9.5v-0.5c3.6-0.6 4-2.4 4-6.6v-17.5c-2-2.1-2.5-2.8-4-3.1v-0.5h6.8z"/>
    <path d="m311.7 122.6h-0.5c-1-3.2-3.7-7.9-8.6-7.9-3.5 0-6 2.8-6 5.8 0 3.3 2.4 4.6 7.9 6.5 3.9 1.3 8.5 3.6 8.5 8.3 0 3-2.1 8-10.3 8-5.3 0-7.1-1.8-7.7-1.8-0.4 0-0.7 0.4-1.2 1.4h-0.5l-0.5-7.8h0.5c1.6 5 4.8 7.3 8.8 7.3 4.2 0 6.9-2.7 6.9-5.8 0-2.2-1.2-3.6-5.4-5.2-6.6-2.4-10.7-4.4-10.7-9.3 0-4 3.1-8.4 9.5-8.4 3.6 0 6.2 1.4 7.5 2.1 0.2-0.3 0.5-0.7 0.9-1.3h0.5l0.4 8.1z"/>

</svg>
