<svg xmlns="http://www.w3.org/2000/svg"><symbol id="logo" viewBox="0 0 440.6 64.4"><g><path d="M81.2 15.9v35.5c0 2-1.7 3.6-3.7 3.6s-3.7-1.6-3.7-3.6V15.9H61.4c-1.7 0-3.2-1.5-3.2-3.2s1.5-3.3 3.2-3.3h32c1.8 0 3.2 1.5 3.2 3.3s-1.5 3.2-3.2 3.2H81.1ZM101.3 12.1c0-1.9 1.5-3.3 3.4-3.3s3.4 1.5 3.4 3.3v16.2c2.2-3 5.6-4.6 9.8-4.6s6.5.9 8.7 2.8c2.2 2 3.5 5.2 3.5 9.8v15.4c0 1.8-1.6 3.3-3.4 3.3s-3.4-1.5-3.4-3.3V38c0-2.7-.4-5.2-1.9-6.7-1.1-1.1-2.6-1.7-4.8-1.7s-5.4 1.4-6.9 4c-1.1 2-1.6 4.6-1.6 7v11.2c0 1.8-1.6 3.3-3.4 3.3s-3.4-1.5-3.4-3.3zM141.5 28.1c2.9-2.7 6.9-4.4 11.4-4.4s8.5 1.7 11.4 4.4c2.9 2.8 4.6 6.7 4.6 11.3s-1.7 8.7-4.6 11.4c-2.8 2.7-7 4.3-11.4 4.3s-8.6-1.6-11.4-4.3c-3-2.7-4.7-6.7-4.7-11.4s1.8-8.5 4.7-11.3m4.7 18.3c1.7 1.8 4 2.9 6.8 2.9s5.1-1.1 6.7-2.9c1.7-1.8 2.6-4.2 2.6-7.1s-1-5.2-2.6-7.1c-1.7-1.8-4-2.9-6.7-2.9s-5.2 1.1-6.8 2.9c-1.7 1.9-2.6 4.2-2.6 7.1s.9 5.2 2.6 7.1M179.7 23.8c1.9 0 3.4 1.5 3.4 3.3 1.9-2.2 4.9-3.3 8.1-3.3s4.4.5 6.2 1.6c1.5.9 2.7 2.2 3.4 3.7.9-1.3 2.1-2.8 4-3.9 1.7-1 3.8-1.4 6-1.4s6.1.9 8.3 2.9c2 1.9 3.2 4.8 3.2 9.2v15.9c0 1.8-1.6 3.3-3.4 3.3s-3.4-1.5-3.4-3.3V37.6c0-2.6-.5-4.8-1.7-6.2-1-1.1-2.5-1.9-4.6-1.9s-4 1-5.1 2.7-1.5 4.1-1.5 6.9v12.6c0 1.8-1.6 3.3-3.4 3.3s-3.4-1.5-3.4-3.3V37.5c0-2.6-.5-4.8-1.7-6.2-1-1.1-2.5-1.9-4.6-1.9s-4 1.1-5.1 2.9c-1 1.7-1.4 4.1-1.5 7v12.3c0 1.8-1.6 3.4-3.4 3.4s-3.4-1.5-3.4-3.4V27c0-1.9 1.5-3.3 3.4-3.3ZM234.7 38.2c3.7-1.5 8.6-2 12.7-2.3v-.8c0-2.1-.4-3.4-1.3-4.5-1.1-1.3-2.6-1.7-4.4-1.7s-4.1.6-5.6 1.3-2.3 1.1-3.2 1.1c-1.4 0-2.4-1.1-2.4-2.4s1.6-2.6 3.5-3.4c2.4-1 5.4-1.7 8.5-1.7s6.7.6 9.2 3.4c1.6 1.8 2.5 4.2 2.5 8.1v16.6c0 1.8-1.6 3.3-3.4 3.3s-2.6-.7-3.1-1.9c-2.7 1.5-5.4 1.9-8.4 1.9-5.4 0-10.4-3.2-10.4-9.1s2.4-6.3 5.8-7.7Zm12.7 10.2v-7.7c-7.1.4-12 1.7-12 5.2s2.9 4.2 6 4.2 4.1-.6 6-1.7M279.8 30.6c-2.1 0-4-1.3-7.1-1.3s-4.7.9-4.7 2.8 1.3 2.6 3.1 3.4c2 .9 4.6 1.6 6.7 2.6 3.9 1.9 5.4 4.2 5.4 7.7 0 5.5-4.6 9.3-11.8 9.3s-11.2-1-11.2-5 1.2-2.6 2.6-2.6c2.4 0 3.5 2.4 8.1 2.4s5.1-1.1 5.1-3.4-1.5-2.9-3.4-3.8-4.6-1.5-6.8-2.6c-3.2-1.5-5-4-5-7.7s4.1-8.5 11.4-8.5 10.2 1.1 10.2 4.2-1.2 2.7-2.6 2.7ZM325.6 54.4h-15c-2 0-3.7-1.6-3.7-3.6V12.9c0-2 1.7-3.6 3.7-3.6h12.6c6.7 0 13.7 3.6 13.7 11.4s-2.2 8.2-5.8 9.8c6.5 1.5 9.5 5.8 9.5 11.7 0 8.4-7.4 12.1-15 12.1Zm-3.7-39h-7.7v13.1h8.1c3.4 0 7.1-1.6 7.1-6.8s-3.4-6.3-7.5-6.3m2.5 19.1h-10.1v13.9h9.8c4.7 0 9-1.7 9-7s-2.6-6.9-8.7-6.9M374.5 49.9c0 1.5-1.1 2.4-3.1 3.4-2.6 1.1-5.7 1.8-9.1 1.8-5 0-9.1-1.7-11.9-4.6-2.6-2.8-4.2-6.7-4.2-11.4s1.5-8.2 4.2-11c2.5-2.6 6.3-4.3 11-4.3s8.3 1.7 10.6 4.1c2.7 2.8 3.6 6.3 3.6 9.6s-1.3 3.8-3.4 3.8h-18.9c.2 2.2 1 4.1 2.2 5.5 1.7 1.9 4.1 3 7.1 3s4.4-.6 6-1.3c1.5-.7 2.2-1.3 3.2-1.3 1.5 0 2.5 1.3 2.5 2.8Zm-5.4-13.3c0-2.1-.7-3.8-1.9-5.2-1.3-1.3-3.2-2.2-5.7-2.2s-4.8.9-6.1 2.4c-1.1 1.3-1.9 3.2-2 5.1h15.7ZM404.9 31.4c-1 0-1.5-.3-2.7-.9-1.3-.5-2.6-1-4.6-1-3 0-5.6 1.1-7.3 3.1-1.5 1.7-2.4 4-2.4 6.7s.9 5.4 2.6 7.1c1.7 1.8 4.1 2.8 7.1 2.8s3.5-.3 4.8-.9c1.3-.5 1.7-.9 2.7-.9 1.5 0 2.7 1.3 2.7 2.8s-1.4 2.6-3.7 3.5c-1.9.7-4.2 1.1-6.7 1.1-5.3 0-9.5-1.7-12.4-4.7-2.6-2.6-4-6.5-4-11s1.3-7.3 3.4-9.8c3-3.8 7.9-5.8 13.2-5.8s4.6.3 7.3 1.5c1.9.9 2.8 1.9 2.8 3.4s-1.3 2.8-2.8 2.8ZM429.7 37.3 440 50.1c.4.5.6 1.1.6 1.7 0 1.8-1.7 3.3-3.4 3.3s-2-.6-2.7-1.5l-9.6-12.1-4 3.6v6.7c0 1.8-1.6 3.3-3.4 3.3s-3.4-1.5-3.4-3.3V12.1c0-1.9 1.5-3.3 3.4-3.3s3.4 1.5 3.4 3.3v25.1l13.3-12.6c.6-.6 1.5-1 2.3-1 1.9 0 3.1 1.6 3.1 3.2s-.3 1.6-.9 2.2l-9.1 8.2Z" class="st0"/></g><g><path d="M36.6 61.9c-.4.3-.8.5-1.2.5-1.4 0-2.5-2-2.5-4.7s.6-3.6 1.6-4.2l12.5-8-12.5-8c-1-.6-1.6-2.3-1.6-4.2s1.2-4.7 2.6-4.7.8.3 1.2.5L50 38.4c2 1.4 3.1 3.8 3.1 7.1S52 51.3 50 52.6l-13.3 9.3ZM16.4 2.3c.4-.3.8-.5 1.2-.5 1.4 0 2.5 2 2.5 4.7s-.6 3.6-1.6 4.2L6 18.7l12.5 8c1 .6 1.6 2.3 1.6 4.2s-1.2 4.7-2.6 4.7-.8-.3-1.2-.5L3.1 25.8C1.1 24.4 0 22 0 18.7s1.1-5.8 3.1-7.1zM30.8 3.8c.7-2.6 1.5-3.8 3-3.8s3.1 2.8 3.1 5.9-.2 2.5-.5 3.8L23 60.7c-.7 2.7-1.5 3.8-3 3.8s-3.2-2.8-3.2-5.9.2-2.4.5-3.7z" class="st0"/></g></symbol></svg>