<?xml version="1.0" encoding="utf-8"?>
<!-- Generator: $$$/GeneralStr/196=Adobe Illustrator 27.6.0, SVG Export Plug-In . SVG Version: 6.00 Build 0)  -->
<svg version="1.1" id="Calque_1" xmlns="http://www.w3.org/2000/svg" xmlns:xlink="http://www.w3.org/1999/xlink" x="0px" y="0px"
	 viewBox="0 0 60 80" style="enable-background:new 0 0 60 80;" xml:space="preserve">
<path d="M59.4,28.2h-0.9H44.4c-0.3,0-0.6,0.3-0.6,0.6v0.9c0,0.3,0.2,0.6,0.6,0.6H58v36.9H2V30.3h13.6
	c0.3,0,0.6-0.3,0.6-0.6v-0.9c0-0.3-0.2-0.6-0.6-0.6H1.5H0.6c-0.3,0-0.6,0.3-0.6,0.6v0.9v38v0.7v0.2c0,0.3,0.2,0.6,0.6,0.6H29v8.6
	H17.5c-0.3,0-0.6,0.3-0.6,0.6v0.9c0,0.3,0.2,0.6,0.6,0.6h25c0.3,0,0.6-0.3,0.6-0.6v-0.9c0-0.3-0.2-0.6-0.6-0.6H31v-8.6h28.4
	c0.3,0,0.6-0.3,0.6-0.6v-0.2v-0.7v-38v-0.9C60,28.5,59.8,28.2,59.4,28.2z"/>
<ellipse cx="29.9" cy="56.3" rx="1.2" ry="1.2"/>
<ellipse cx="29.9" cy="49.4" rx="1.2" ry="1.2"/>
<ellipse cx="29.9" cy="42.6" rx="1.2" ry="1.2"/>
<ellipse cx="29.9" cy="35.7" rx="1.2" ry="1.2"/>
<ellipse cx="29.9" cy="28.8" rx="1.2" ry="1.2"/>
<ellipse cx="29.9" cy="22" rx="1.2" ry="1.2"/>
<ellipse cx="29.9" cy="15.1" rx="1.2" ry="1.2"/>
<path d="M29.9,9.5c-2.6,0-4.6-2.1-4.6-4.7S27.3,0,29.9,0s4.6,2.1,4.6,4.7S32.4,9.5,29.9,9.5z M29.9,2
	c-1.4,0-2.6,1.2-2.6,2.7s1.2,2.7,2.6,2.7c1.4,0,2.6-1.2,2.6-2.7S31.3,2,29.9,2z"/>
<path d="M18.6,14.1H13c-0.5-2.1-2.3-3.7-4.5-3.7c-2.6,0-4.6,2.1-4.6,4.7s2.1,4.7,4.6,4.7c2.2,0,4-1.6,4.5-3.7h5.5
	c0,0,2.5-0.1,2.5,3.1v28.4c0,0.3,0.2,0.6,0.6,0.6h0.9c0.3,0,0.6-0.3,0.6-0.6V19.2C23.1,13.9,18.6,14.1,18.6,14.1z M8.5,17.8
	c-1.4,0-2.6-1.2-2.6-2.7s1.2-2.7,2.6-2.7s2.6,1.2,2.6,2.7S10,17.8,8.5,17.8z"/>
<path d="M36.7,19.2v28.4c0,0.3,0.2,0.6,0.6,0.6h0.9c0.3,0,0.6-0.3,0.6-0.6V19.2c0-3.2,2.5-3.1,2.5-3.1h5.5
	c0.5,2.1,2.3,3.7,4.5,3.7c2.6,0,4.6-2.1,4.6-4.7s-2.1-4.7-4.6-4.7c-2.2,0-4,1.6-4.5,3.7h-5.5C41.3,14.1,36.7,13.9,36.7,19.2z
	 M48.7,15.1c0-1.5,1.2-2.7,2.6-2.7s2.6,1.2,2.6,2.7s-1.2,2.7-2.6,2.7S48.7,16.6,48.7,15.1z"/>
</svg>
