<?xml version="1.0" encoding="utf-8"?><svg xmlns="http://www.w3.org/2000/svg" xmlns:xlink="http://www.w3.org/1999/xlink"><symbol viewBox="0 0 51.181 60.588" id="colors" xmlns="http://www.w3.org/2000/svg"><g data-name="Groupe 19"><path data-name="Tracé 27" d="M.161.606C.018.94-.029 14.529.018 30.788L.161 60.35l8.582.143 8.582.1 16.688-9.3c9.2-5.1 16.879-9.584 17.118-9.917.239-.382-.381-2.146-1.812-5.007-2.1-4.244-2.241-4.339-3.338-3.815l-1.192.524 1.86 3.622 1.811 3.672-12.634 7.057c-6.961 3.862-12.683 6.962-12.778 6.866s5.1-6.58 11.538-14.447c6.39-7.82 11.873-14.638 12.111-15.115.381-.668 0-1.144-2.051-2.67-4.624-3.386-5.054-3.624-5.865-2.956a1.965 1.965 0 0 0-.715 1 13.024 13.024 0 0 0 2.861 2.384c1.86 1.287 2.718 2.194 2.48 2.527-2.432 3.147-21.694 26.511-21.838 26.511s-.143-.191 0-.381c.715-1.144 14.59-37 14.59-37.715 0-.62-1.669-1.526-6.532-3.528-5.96-2.432-6.628-2.575-7.152-1.907a3.027 3.027 0 0 0-.619 1.144 39.86 39.86 0 0 0 5.626 2.623c3.052 1.24 5.674 2.336 5.769 2.432.239.143-14.209 36.9-14.686 37.477-.19.191-.381-11.157-.381-25.176-.048-14.018-.19-25.7-.381-25.986C17.326-.253.447-.109.161.606Zm15.5 29.7V58.2H2.306V2.413h13.35v27.893Z"/></g></symbol><symbol viewBox="0 0 69.783 69.988" id="dimensions" xmlns="http://www.w3.org/2000/svg"><g data-name="546daf2d7fafdc5b73b93229a753f2f6"><g data-name="Groupe 20"><path data-name="Tracé 28" d="M.111 66.01a5.311 5.311 0 0 0 4.366 3.839c1.344.194 61.214.18 62.406 0 1.469-.249 2.979-1.151 2.9-1.746-.028-.221-2.7-2.994-8.5-8.786l-8.454-8.454H19.083V16.839l-8.412-8.412C3.727 1.483 2.189.001 1.884.001c-.457 0-1 .6-1.5 1.663l-.361.762-.028 31.528C0 52.04.042 65.705.111 66.01ZM1.66 2.149l.264-.554L9.81 9.55l7.885 7.954v4.948h-5.017c-4.463 0-5.031.028-5.266.236a.774.774 0 0 0 .014 1.151 46.929 46.929 0 0 0 5.266.139h5v9.838h-3.243c-3.2 0-3.257 0-3.464.3-.291.416-.277.61.056.943.263.264.457.277 3.464.277h3.187v9.429h-5a46.925 46.925 0 0 0-5.266.139.8.8 0 0 0-.08 1.089 35.919 35.919 0 0 0 5.238.18l5.045.041.042 2.779c.028 2.633.041 2.785.318 3.007s.623.249 2.91.249h2.62v4.891c0 4.2.028 4.933.221 5.2a.67.67 0 0 0 1.053.069c.236-.208.249-.554.249-5.2v-4.961h9.84v3.118c0 2.966.014 3.132.291 3.409a.713.713 0 0 0 1.026-.041 19.582 19.582 0 0 0 .18-3.3l.041-3.187h9.41v4.977c0 5.391 0 5.419.749 5.419.638 0 .638-.056.638-5.363v-5.031h5.058l7.885 7.884 7.885 7.886-.43.222c-.388.208-3.326.221-32.014.221H4.03l-.721-.361a3.406 3.406 0 0 1-1.76-2c-.166-.526-.18-5.433-.166-32.014.031-30.151.045-31.412.277-31.938Z"/></g></g></symbol><symbol viewBox="0 0 77.186 77.211" id="facebook" xmlns="http://www.w3.org/2000/svg"><path d="M9.189 0A9.217 9.217 0 0 0 0 9.189V68a9.217 9.217 0 0 0 9.189 9.189h30.933a1.838 1.838 0 0 0 .6 0h10.427a1.838 1.838 0 0 0 .6 0H68A9.217 9.217 0 0 0 77.186 68V9.189A9.217 9.217 0 0 0 68 0Zm0 3.676H68a5.486 5.486 0 0 1 5.513 5.513V68A5.486 5.486 0 0 1 68 73.511H53.3V47.782h7.021l2.569-12.864H53.3v-3.676c0-1.025.1-1.1.441-1.328a7.167 7.167 0 0 1 3.234-.51h5.513V19.056l-1.048-.5a25.352 25.352 0 0 0-9.979-2.017 12.093 12.093 0 0 0-9.709 4.361 16.342 16.342 0 0 0-3.159 10.337v3.676H33.08v12.869h5.513v25.729h-29.4A5.486 5.486 0 0 1 3.676 68V9.189a5.486 5.486 0 0 1 5.513-5.513Zm42.269 16.54a19.34 19.34 0 0 1 7.351 1.284v4.225h-1.838a9.26 9.26 0 0 0-5.237 1.1 5.193 5.193 0 0 0-2.114 4.411v7.351h8.78L57.3 44.1h-7.68v29.4h-7.351V44.1h-5.514v-5.507h5.513v-7.351a12.827 12.827 0 0 1 2.355-8.04 8.109 8.109 0 0 1 6.835-2.987Z" fill="#fff"/></symbol><symbol viewBox="0 0 77.211 77.211" id="instagram" xmlns="http://www.w3.org/2000/svg"><path d="M22.812 0A22.84 22.84 0 0 0 0 22.812V54.4a22.84 22.84 0 0 0 22.812 22.811H54.4A22.84 22.84 0 0 0 77.211 54.4V22.812A22.84 22.84 0 0 0 54.4 0Zm0 3.51H54.4a19.277 19.277 0 0 1 19.3 19.3V54.4a19.277 19.277 0 0 1-19.3 19.3H22.812A19.277 19.277 0 0 1 3.51 54.4V22.812A19.277 19.277 0 0 1 22.812 3.51Zm36.851 10.528a3.51 3.51 0 1 0 3.51 3.51 3.51 3.51 0 0 0-3.51-3.51ZM38.605 19.3a19.3 19.3 0 1 0 19.3 19.3 19.329 19.329 0 0 0-19.3-19.3Zm0 3.51a15.793 15.793 0 1 1-15.793 15.795 15.767 15.767 0 0 1 15.793-15.793Z" fill="#fff"/></symbol><symbol viewBox="0 0 36.6 64.6" xml:space="preserve" id="logo" xmlns="http://www.w3.org/2000/svg"><path fill="#76B82A" d="M17 .2h2.6V12H17z"/><path fill="#76B82A" d="M27.3 14.1c5.1 0 9.2-4.1 9.2-9.2V0H21.7v16.7h-2.2V14H17v2.7h-2V0H.1v4.8C.1 9.9 4.2 14 9.3 14h3v2.6H9.2c-5.1 0-9.2 4.1-9.2 9.2v3.8h2.6v-3.8c0-3.7 3-6.7 6.7-6.7h3.2v10.2H15V19.2h2v10.2h2.6V19.2h2.2v10.2h2.6V19.2h3c3.7 0 6.7 3 6.7 6.7v3.8h2.6v-3.8c0-5.1-4.1-9.2-9.2-9.2h-3v-2.6h2.8zm-3-11.5H34v2.3c0 3.7-3 6.7-6.7 6.7h-3v-9zm-11.9 8.9h-3c-3.7 0-6.7-3-6.7-6.7V2.6h9.7v8.9z"/><path fill="#fff" d="M29 33.9c-.1 0-.1 0 0 0h-1.5V49h2v-3.9c.9-.2 1.8-.5 2.7-1s1.6-1.1 2.3-1.8 1.2-1.5 1.6-2.5c.4-.9.6-1.9.6-3v-3H29zm5.6 3c0 .7-.1 1.3-.3 1.9s-.4 1.1-.7 1.6-.6.9-1 1.2-.7.6-1.1.9c-.4.2-.8.4-1.1.5-.4.1-.7.2-1 .2v-7.5h5.2v1.2zM1.7 33.9c-.1 0-.1 0 0 0H.2V49h2v-3.9c.9-.2 1.8-.5 2.7-1s1.6-1.1 2.3-1.8 1.2-1.5 1.6-2.5c.4-.9.6-1.9.6-3v-3H1.7zm5.6 3c0 .7-.1 1.3-.3 1.9s-.4 1.1-.7 1.6-.6.9-1 1.2-.7.6-1.1.9c-.4.2-.8.4-1.1.5-.4.1-.7.2-1 .2v-7.5h5.2v1.2zM13.1 49l-2 .1V33.9h2zM23.7 49V37.6c0-.5 0-.8-.1-1.1s-.2-.5-.3-.6-.3-.2-.4-.2h-.6c-.1 0-.3.1-.4.2s-.2.3-.3.6-.1-.3-.1.2V49h-2V37.6c0-.5 0-.8-.1-1.1s-.2-.5-.3-.6-.3-.2-.4-.2H18c-.1 0-.3.1-.4.2s-.2.3-.3.6c-.3.3-.3.7-.3 1.1V49h-2V37.9c0-.7.1-1.4.3-1.9s.4-.9.7-1.2.6-.5 1-.7c.4-.1.7-.2 1.1-.2h.4c.2 0 .4.1.6.1.2.1.4.2.7.3.2.1.4.3.6.5.2-.2.3-.4.5-.5l.6-.3c.2-.1.4-.1.5-.1h.4c.4 0 .8.1 1.2.2s.7.4 1 .7.5.7.7 1.2.3 1.1.3 1.9v11.2l-1.9-.1z"/><path fill="#76B82A" d="m1.3 54.1-.3-.5 1.2-.6.3.5-1.2.6zM.2 58.4v-4h2.9v.7H1v.9h2.1v.7H1v1.1h2.1v.7H.2zM5.4 56.6h-.6v1.1H5c.4 0 1.4-.1 1.4-.6 0-.4-.7-.5-1-.5m.1-1.5h-.7v1H5c.4 0 1.1 0 1.1-.6.1-.4-.4-.4-.6-.4M5 58.4H4v-4h1.5c.6 0 1.4.1 1.4.9 0 .5-.4.8-.9.9.5.1 1.1.3 1.1.9.1 1.1-1.3 1.3-2.1 1.3M9 54.1l-.3-.5L10 53l.3.5-1.3.6zm-1 4.3v-4h2.9v.7H8.8v.9h2.1v.7H8.8v1.1h2.1v.7H8zM14.3 58.4l-1.7-2.6v2.6h-.8v-4h.8l1.7 2.6v-2.6h.8v4zM16.1 54.4h.8v4h-.8zM18.5 58.5H18v-.7c.2 0 .3.1.5.1.3 0 1-.1 1-.5 0-.3-.3-.5-.7-.7-.5-.2-1-.5-1-1.2 0-.8 1.1-1.2 1.8-1.2h.5v.7c-.2 0-.3-.1-.5-.1-.3 0-.9.1-.9.5 0 .3.3.4.7.6.5.2 1.1.5 1.1 1.2-.2 1-1.2 1.3-2 1.3M22.6 55.1v3.3h-.8v-3.3h-1.1v-.7h2.9v.7zM24.3 58.4v-4h2.8v.7H25v.9h2.1v.7H25v1h2.1v.7zM29.5 55.1h-.7v1.3h.4c.5 0 1.1-.2 1.1-.7s-.5-.6-.8-.6m.7 3.3-1.4-1.6v1.6H28v-4h1.7c.7 0 1.4.3 1.4 1.1 0 .7-.6 1.2-1.2 1.3l1.4 1.6h-1.1zM31.9 54.4h.8v4h-.8zM33.7 58.4v-4h2.9v.7h-2.1v.9h2.1v.7h-2.1v1h2.1v.7zM.9 64.5H.1v-3h.7V63c.2-.7.9-1.5 1.7-1.6v.9c-1 .2-1.5 1.3-1.6 2.2M4.7 62.1c-.4 0-.7.2-.9.5h1.5c0-.3-.3-.5-.6-.5m1.2 1.1H3.7c0 .5.3.7.8.7.3 0 .6-.1.8-.3v.7c-.3.1-.6.2-.9.2-.9 0-1.5-.5-1.5-1.4 0-1 .8-1.8 1.8-1.8.9.1 1.3.7 1.3 1.5 0 .1 0 .2-.1.4M8.7 64.6c-1.2 0-2.1-.8-2.1-2.1 0-1.2 1.2-2.4 2.4-2.4.3 0 .7 0 1 .2v.8c-.3-.1-.6-.2-1-.2-.9 0-1.6.8-1.6 1.6s.5 1.3 1.3 1.3c.5 0 .9-.2 1.2-.5v.9c-.3.3-.7.4-1.2.4M12.5 61h-.7v1.4h.4c.5 0 1.1-.2 1.1-.8 0-.5-.4-.6-.8-.6m.8 3.5-1.5-1.7v1.7H11v-4.2h1.7c.8 0 1.4.3 1.4 1.2 0 .7-.6 1.2-1.3 1.4l1.5 1.7h-1zM16.3 60l-.3-.5 1.3-.7.3.5-1.3.7zm-1.1 4.5v-4.2h3v.7H16v1h2.2v.7H16v1.1h2.2v.7h-3zM21 61.5l-.6 1.5h1.3l-.7-1.5zm1.3 3-.4-.8h-1.8l-.3.8h-.9l1.8-4.2h.6l1.8 4.2h-.8zM25.1 61v3.5h-.8V61h-1.2v-.7h3.1v.7zM27 60.3h.8v4.2H27zM31 64.5h-.6l-1.9-4.2h1l1.2 3 1.3-3h.9zM33.6 64.5v-4.2h3v.7h-2.2v1h2.2v.7h-2.2v1.1h2.2v.7z"/></symbol><symbol viewBox="0 0 36.6 49.1" xml:space="preserve" id="logo--footer" xmlns="http://www.w3.org/2000/svg"><path fill="#0B101D" d="M17 .2h2.6V12H17z"/><path fill="#0B101D" d="M27.3 14.1c5.1 0 9.2-4.1 9.2-9.2V0H21.7v16.7h-2.2V14H17v2.7h-2V0H.1v4.8C.1 9.9 4.2 14 9.3 14h3v2.6H9.2c-5.1 0-9.2 4.1-9.2 9.2v3.8h2.6v-3.8c0-3.7 3-6.7 6.7-6.7h3.2v10.2H15V19.2h2v10.2h2.6V19.2h2.2v10.2h2.6V19.2h3c3.7 0 6.7 3 6.7 6.7v3.8h2.6v-3.8c0-5.1-4.1-9.2-9.2-9.2h-3v-2.6h2.8zm-3-11.5H34v2.3c0 3.7-3 6.7-6.7 6.7h-3v-9zm-11.9 8.9h-3c-3.7 0-6.7-3-6.7-6.7V2.6h9.7v8.9z"/><path fill="#fff" d="M29 33.9c-.1 0-.1 0 0 0h-1.5V49h2v-3.9c.9-.2 1.8-.5 2.7-1s1.6-1.1 2.3-1.8 1.2-1.5 1.6-2.5c.4-.9.6-1.9.6-3v-3H29zm5.6 3c0 .7-.1 1.3-.3 1.9s-.4 1.1-.7 1.6-.6.9-1 1.2-.7.6-1.1.9c-.4.2-.8.4-1.1.5-.4.1-.7.2-1 .2v-7.5h5.2v1.2zM1.7 33.9c-.1 0-.1 0 0 0H.2V49h2v-3.9c.9-.2 1.8-.5 2.7-1s1.6-1.1 2.3-1.8 1.2-1.5 1.6-2.5c.4-.9.6-1.9.6-3v-3H1.7zm5.6 3c0 .7-.1 1.3-.3 1.9s-.4 1.1-.7 1.6-.6.9-1 1.2-.7.6-1.1.9c-.4.2-.8.4-1.1.5-.4.1-.7.2-1 .2v-7.5h5.2v1.2zM13.1 49l-2 .1V33.9h2zM23.7 49V37.6c0-.5 0-.8-.1-1.1s-.2-.5-.3-.6-.3-.2-.4-.2h-.6c-.1 0-.3.1-.4.2s-.2.3-.3.6-.1-.3-.1.2V49h-2V37.6c0-.5 0-.8-.1-1.1s-.2-.5-.3-.6-.3-.2-.4-.2H18c-.1 0-.3.1-.4.2s-.2.3-.3.6c-.3.3-.3.7-.3 1.1V49h-2V37.9c0-.7.1-1.4.3-1.9s.4-.9.7-1.2.6-.5 1-.7c.4-.1.7-.2 1.1-.2h.4c.2 0 .4.1.6.1.2.1.4.2.7.3.2.1.4.3.6.5.2-.2.3-.4.5-.5l.6-.3c.2-.1.4-.1.5-.1h.4c.4 0 .8.1 1.2.2s.7.4 1 .7.5.7.7 1.2.3 1.1.3 1.9v11.2l-1.9-.1z"/></symbol><symbol viewBox="0 0 36.6 29.7" xml:space="preserve" id="logo--page" xmlns="http://www.w3.org/2000/svg"><path fill="#75B72D" d="M17 .2h2.6V12H17z"/><path fill="#75B72D" d="M27.3 14.1c5.1 0 9.2-4.1 9.2-9.2V0H21.7v16.7h-2.2V14H17v2.7h-2V0H.1v4.8C.1 9.9 4.2 14 9.3 14h3v2.6H9.2c-5.1 0-9.2 4.1-9.2 9.2v3.8h2.6v-3.8c0-3.7 3-6.7 6.7-6.7h3.2v10.2H15V19.2h2v10.2h2.6V19.2h2.2v10.2h2.6V19.2h3c3.7 0 6.7 3 6.7 6.7v3.8h2.6v-3.8c0-5.1-4.1-9.2-9.2-9.2h-3v-2.6h2.8zm-3-11.5H34v2.3c0 3.7-3 6.7-6.7 6.7h-3v-9zm-11.9 8.9h-3c-3.7 0-6.7-3-6.7-6.7V2.6h9.7v8.9z"/></symbol><symbol viewBox="0 0 76.601 50.2" id="placage" xmlns="http://www.w3.org/2000/svg"><g data-name="Groupe 22"><path data-name="Tracé 33" d="M28.016.267a7.824 7.824 0 0 0-4.841 3.954 4.934 4.934 0 0 0-.567 3.032 5.13 5.13 0 0 0 .479 2.873 6.861 6.861 0 0 0 3.032 3.174 4.746 4.746 0 0 0 2.252.408 4.262 4.262 0 0 0 3.369-1.259 3.871 3.871 0 0 0 1.419-3.1 1.929 1.929 0 0 0-.461-1.543 1.847 1.847 0 0 0-2.305-.479c-.674.319-.709.408-.337.886a2.113 2.113 0 0 1 0 2 2.222 2.222 0 0 1-2.217.567 2.587 2.587 0 0 1-2.057-1.684 3.161 3.161 0 0 1-.39-2.11 4.262 4.262 0 0 1 3.085-3.918 4.517 4.517 0 0 1 4.947 1.419 6.434 6.434 0 0 1 1.472 7.731c-.461.94-1.188 1.774-4.061 4.7a31.361 31.361 0 0 0-3.635 4.061 3.706 3.706 0 0 0 .372 2.358l.319.461 4.468-4.5c4.983-5.036 5.337-5.533 5.887-8.3a9.41 9.41 0 0 0-2.766-8.511 7.423 7.423 0 0 0-7.464-2.22Z"/><path data-name="Tracé 34" d="M64.1 10.622c-2.873.088-3.068.106-4.079.6a10.108 10.108 0 0 0-3.954 4.043c-1.773 3.618-1.72 8.317.16 13.584 1.738 4.859 1.774 5.036 1.88 6.578a10.533 10.533 0 0 1-.833 5.089l-.514 1.135h-2.873l-6.95-6.916L40 27.805l4.2-4.2c2.305-2.305 4.2-4.255 4.2-4.309s-1.33-1.437-2.944-3.085L42.5 13.247l-14.2 14.2-14.2 14.2H9.93l.035-2.855.053-2.837 1.188-.408a8.385 8.385 0 0 0 5.621-6.277 8.491 8.491 0 0 0-4.7-9.38c-1.383-.674-1.419-.674-3.617-.674s-2.234 0-3.617.674a8.436 8.436 0 0 0-4.7 9.38 8.384 8.384 0 0 0 5.621 6.277l1.188.408.053 2.837.035 2.855H0v8.511h1.383c.745.018 17.36.018 36.9.018l35.553.018.3-.6a27.621 27.621 0 0 0 2.092-5.941 18.465 18.465 0 0 0 .372-4.008c0-3.795-.621-6.472-2.731-11.686-2.021-5.017-2.428-6.435-2.535-8.758a6.913 6.913 0 0 1 .213-2.908 5.942 5.942 0 0 1 2.518-2.961c1.223-.709 1.436-1.436.692-2.305l-.425-.5h-3.618c-1.968.007-4.947.042-6.614.095Zm5.586 2.909a.518.518 0 0 1-.159.372 8.88 8.88 0 0 0-1.1 3.369c-.372 2.66.248 5.3 2.589 11.171 2.27 5.71 2.748 7.642 2.748 11.1a16.755 16.755 0 0 1-1.1 6.295l-.532 1.49h-8.315c-4.965 0-8.316-.071-8.316-.159a4.405 4.405 0 0 1 .94-.975 12.193 12.193 0 0 0 4.5-10.2 18.147 18.147 0 0 0-1.578-6.721c-2.217-5.586-2.483-9.238-.851-12.448.869-1.738 2.287-3.121 3.44-3.369.3-.053 2.163-.124 4.149-.141 3.018-.033 3.586.003 3.586.216Zm-26.066 4.8.976.975-11.171 11.177-11.171 11.17h-4.079l12.147-12.146c6.685-6.685 12.182-12.146 12.235-12.146a8.8 8.8 0 0 1 1.064.975ZM10.9 22.468a6 6 0 0 1 2.8 2.855 6.452 6.452 0 0 1 0 4.469 6 6 0 0 1-2.8 2.855 5.713 5.713 0 0 1-6.543-1.276 4.972 4.972 0 0 1-1.436-3.813 4.968 4.968 0 0 1 1.436-3.812 5.474 5.474 0 0 1 4.149-1.774 4.539 4.539 0 0 1 2.394.496Zm33.159 13.334 5.851 5.851H26.155l5.851-5.851c3.209-3.227 5.923-5.851 6.029-5.851s2.82 2.624 6.029 5.851Zm9.841 8.76a5.882 5.882 0 0 1-.549.745 10.309 10.309 0 0 0-.886 1.348l-.337.674H2.837v-2.8h25.535c14.043-.003 25.533.015 25.533.033Z"/></g></symbol><symbol viewBox="0 0 44.8 59.3" style="enable-background:new 0 0 44.8 59.3" xml:space="preserve" id="price" xmlns="http://www.w3.org/2000/svg"><path d="M27.7 59.3h-.5c-3 0-5.8-.5-8.6-1.6-2.5-1-4.7-2.6-6.6-4.5-1.9-2.1-3.5-4.4-4.5-7-1.2-2.8-2-5.7-2.4-8.7H0V31h4.6v-3.5H0V21h5.3c.6-2.9 1.5-5.8 2.9-8.4 1.3-2.5 2.9-4.8 4.9-6.8 1.9-1.9 4.1-3.3 6.6-4.3C22.3.5 25 0 27.7 0c3.3-.1 6.7.7 9.6 2.2 2.6 1.4 5 3.5 6.7 5.9l.2.3-3.7 4c-.3.3-.6.6-.9.8-.5.3-1 .5-1.6.4-.4 0-.9-.1-1.3-.4-.3-.2-.7-.5-1-.8-.4-.3-.8-.7-1.2-1-.5-.4-1-.7-1.5-1-.7-.3-1.4-.6-2.1-.8-.9-.2-1.9-.3-2.9-.3-2.8-.1-5.6 1.1-7.5 3.1-2 2-3.4 4.9-4.2 8.6h19.8v3.5c0 .8-.3 1.5-.9 2-.6.6-1.5 1-2.4.9H15.5V30.9h16.8v3.5c0 .8-.3 1.5-.9 2-.6.6-1.5.9-2.3.9h-13c.7 4.1 2.1 7.3 4 9.3 1.9 2.1 4.6 3.3 7.4 3.2 1.5.1 3-.2 4.4-.7 1-.4 1.9-1 2.7-1.6.7-.6 1.3-1.2 1.8-1.7.5-.6 1.2-.9 1.9-.9.3 0 .7.1 1 .2.4.2.6.4.9.7l4.5 4.1-.2.4c-1.8 2.8-4.3 5.1-7.2 6.7-2.9 1.5-6.3 2.3-9.6 2.3zm-.5-1c3.4.1 6.7-.7 9.7-2.2 2.7-1.4 4.9-3.5 6.6-6l-3.9-3.6c-.2-.2-.4-.4-.6-.5h-.5c-.5 0-.9.2-1.2.6-.5.5-1.1 1.1-1.9 1.8-.9.7-1.9 1.4-2.9 1.8-1.5.5-3.1.8-4.8.8-3.1 0-6.1-1.2-8.2-3.5-2.2-2.3-3.6-5.8-4.4-10.4l-.1-.6h14.2c.6 0 1.2-.2 1.6-.6.4-.4.6-.8.6-1.3V32H14.7V26.3H33c.6 0 1.2-.2 1.6-.6.4-.4.6-.8.6-1.3v-2.5h-20l.1-.6c.9-4.2 2.4-7.5 4.6-9.7 2.2-2.2 5.2-3.4 8.2-3.4 1 0 2.1.1 3.1.3.8.2 1.6.5 2.3.8.6.3 1.2.7 1.7 1.1.5.4.9.7 1.2 1 .4.3.7.6 1 .8.2.2.4.2.7.2.4 0 .7-.1 1-.2.2-.2.5-.4.7-.7L43 8.1c-1.6-2.2-3.8-4-6.2-5.2C34 1.5 30.8.7 27.6.8c-2.7 0-5.2.5-7.7 1.4-2.3 1-4.5 2.4-6.3 4.1-1.9 1.9-3.5 4.1-4.7 6.5-1.4 2.7-2.3 5.6-2.8 8.6l-.1.4H1v4.5h4.6v5.5H1v4.4h5v.7c.4 3.1 1.2 6 2.4 8.9 1 2.5 2.5 4.8 4.4 6.7 1.8 1.9 3.9 3.3 6.3 4.3 2.5 1.1 5.3 1.6 8.1 1.5z"/></symbol><symbol viewBox="0 0 79.264 50.2" id="wood" xmlns="http://www.w3.org/2000/svg"><g data-name="Groupe 17"><g data-name="Groupe 16"><path data-name="Tracé 3" d="M22.458 10.568a1.248 1.248 0 0 0 1.321-1.321A1.248 1.248 0 0 1 25.1 7.926a1.321 1.321 0 0 0 0-2.642 3.892 3.892 0 0 0-3.963 3.963 1.248 1.248 0 0 0 1.321 1.321Z"/><path data-name="Tracé 4" d="M13.21 26.421a1.248 1.248 0 0 0 1.321-1.321 1.248 1.248 0 0 1 1.321-1.321 1.321 1.321 0 1 0 0-2.642 3.892 3.892 0 0 0-3.963 3.963 1.248 1.248 0 0 0 1.321 1.321Z"/><path data-name="Tracé 5" d="M10.568 38.311A1.248 1.248 0 0 0 9.25 36.99a3.892 3.892 0 0 0-3.963 3.963 1.321 1.321 0 0 0 2.642 0 1.248 1.248 0 0 1 1.321-1.321 1.248 1.248 0 0 0 1.318-1.321Z"/><path data-name="Tracé 6" d="M25.104 36.99a3.892 3.892 0 0 0-3.963 3.963 1.321 1.321 0 1 0 2.642 0 1.248 1.248 0 0 1 1.321-1.321 1.321 1.321 0 0 0 0-2.642Z"/><path data-name="Tracé 7" d="M44.916 13.211h7.926a1.321 1.321 0 0 0 0-2.642h-7.926a1.321 1.321 0 0 0 0 2.642Z"/><path data-name="Tracé 8" d="M46.237 7.926h1.321a1.321 1.321 0 0 0 0-2.642h-1.321a1.321 1.321 0 0 0 0 2.642Z"/><path data-name="Tracé 9" d="M29.063 26.421a1.248 1.248 0 0 0 1.321-1.321 1.248 1.248 0 0 1 1.321-1.321 1.321 1.321 0 1 0 0-2.642 3.892 3.892 0 0 0-3.963 3.963 1.248 1.248 0 0 0 1.321 1.321Z"/><path data-name="Tracé 10" d="M51.522 29.063h7.926a1.321 1.321 0 0 0 0-2.642h-7.926a1.321 1.321 0 1 0 0 2.642Z"/><path data-name="Tracé 11" d="M52.843 23.779h1.321a1.321 1.321 0 1 0 0-2.642h-1.321a1.321 1.321 0 0 0 0 2.642Z"/><path data-name="Tracé 12" d="M40.957 36.99a3.892 3.892 0 0 0-3.963 3.963 1.321 1.321 0 0 0 2.642 0 1.248 1.248 0 0 1 1.321-1.321 1.321 1.321 0 0 0 0-2.642Z"/><path data-name="Tracé 13" d="M68.695 42.274h-7.926a1.321 1.321 0 0 0 0 2.642h7.926a1.321 1.321 0 1 0 0-2.642Z"/><path data-name="Tracé 14" d="M62.09 39.632h1.321a1.321 1.321 0 1 0 0-2.642H62.09a1.321 1.321 0 1 0 0 2.642Z"/><path data-name="Tracé 15" d="M78.863 43.68a9.477 9.477 0 0 0 0-5.45 1.332 1.332 0 0 0-.278-.785 9.184 9.184 0 0 0-8.57-5.739h-2.742a9.159 9.159 0 0 0 2.108-3.2 1.287 1.287 0 0 0 .235-.675 9.477 9.477 0 0 0 0-5.45 1.331 1.331 0 0 0-.278-.785 9.184 9.184 0 0 0-8.57-5.739h-.1a9.157 9.157 0 0 0 2.108-3.2 1.288 1.288 0 0 0 .235-.675 9.476 9.476 0 0 0 0-5.45 1.332 1.332 0 0 0-.278-.785 9.184 9.184 0 0 0-8.57-5.739H25.1a9.265 9.265 0 0 0-5.724 16.525 9.342 9.342 0 0 0-3.523-.683 9.27 9.27 0 0 0-6.5 15.855h-.1a9.248 9.248 0 1 0 0 18.495h60.764a9.183 9.183 0 0 0 8.612-5.846 1.287 1.287 0 0 0 .234-.674ZM60.769 18.495a6.559 6.559 0 0 1 5.316 2.638h-6.637a1.321 1.321 0 1 0 0 2.642h7.8a6.9 6.9 0 0 1 0 2.642h-2.516a1.321 1.321 0 0 0 0 2.642h1.352a6.559 6.559 0 0 1-5.316 2.642H38.21a9.151 9.151 0 0 0 1.869-2.642h4.838a1.321 1.321 0 0 0 0-2.642H40.86c.017-.121.033-.243.046-.367v-.063c.013-.135.024-.272.031-.409q.012-.239.012-.482t-.012-.482a9.189 9.189 0 0 0-.031-.41v-.063c-.012-.124-.029-.245-.046-.367h6.7a1.321 1.321 0 1 0 0-2.642h-7.48a9.161 9.161 0 0 0-1.869-2.642h22.56ZM40.953 47.559a6.605 6.605 0 1 1 6.605-6.605 6.541 6.541 0 0 1-6.605 6.605Zm-15.853 0a6.605 6.605 0 1 1 6.605-6.605 6.541 6.541 0 0 1-6.605 6.605Zm6.605-29.064A6.605 6.605 0 1 1 25.1 25.1a6.541 6.541 0 0 1 6.606-6.605Zm0 15.853h2.744a9.159 9.159 0 0 0-1.423 1.8 9.158 9.158 0 0 0-1.425-1.806Zm-6.5-2.64h-.1a9.342 9.342 0 0 0-3.523.683 9.162 9.162 0 0 0 2.2-2.486 9.144 9.144 0 0 0 1.418 1.803ZM54.164 2.642a6.559 6.559 0 0 1 5.316 2.642h-6.637a1.321 1.321 0 0 0 0 2.642h7.8a6.9 6.9 0 0 1 0 2.642h-2.516a1.321 1.321 0 0 0 0 2.642h1.353a6.559 6.559 0 0 1-5.316 2.642H31.6a9.151 9.151 0 0 0 1.869-2.642h4.838a1.321 1.321 0 1 0 0-2.642h-4.053c.017-.122.033-.243.046-.367v-.063c.013-.135.024-.272.031-.409q.012-.239.012-.482t-.012-.482a9.032 9.032 0 0 0-.031-.409v-.063c-.012-.124-.029-.245-.046-.367h6.7a1.321 1.321 0 0 0 0-2.642h-7.48A9.161 9.161 0 0 0 31.6 2.642ZM18.5 9.247a6.605 6.605 0 1 1 6.6 6.606 6.541 6.541 0 0 1-6.6-6.606Zm6.605 9.247h.1a9.159 9.159 0 0 0-1.423 1.8 9.155 9.155 0 0 0-2.2-2.486 9.342 9.342 0 0 0 3.518.687ZM9.247 25.1a6.605 6.605 0 1 1 6.605 6.605A6.541 6.541 0 0 1 9.247 25.1Zm6.605 9.247a9.342 9.342 0 0 0 3.523-.683 9.162 9.162 0 0 0-2.2 2.486 9.157 9.157 0 0 0-1.425-1.806Zm-13.21 6.606a6.541 6.541 0 0 1 6.605-6.605 6.606 6.606 0 0 1 0 13.211 6.541 6.541 0 0 1-6.605-6.606Zm13.109 6.605a9.159 9.159 0 0 0 1.423-1.8 9.165 9.165 0 0 0 1.423 1.8Zm15.853 0a9.16 9.16 0 0 0 1.423-1.8 9.165 9.165 0 0 0 1.423 1.8Zm38.413 0h-22.56a9.151 9.151 0 0 0 1.869-2.642h4.838a1.321 1.321 0 0 0 0-2.642h-4.057c.017-.122.033-.243.046-.367v-.063c.013-.135.024-.272.031-.41q.012-.239.012-.482t-.012-.482a9.032 9.032 0 0 0-.031-.409v-.063c-.012-.124-.029-.245-.046-.367h6.7a1.321 1.321 0 0 0 0-2.642h-7.48a9.161 9.161 0 0 0-1.869-2.642h22.56a6.559 6.559 0 0 1 5.316 2.642H68.7a1.321 1.321 0 1 0 0 2.642h7.8a6.9 6.9 0 0 1 0 2.642h-2.52a1.321 1.321 0 1 0 0 2.642h1.352a6.558 6.558 0 0 1-5.315 2.644Z"/></g></g></symbol></svg>