<?xml version="1.0" encoding="utf-8"?><svg xmlns="http://www.w3.org/2000/svg" xmlns:xlink="http://www.w3.org/1999/xlink"><symbol viewBox="0 0 77.186 77.211" id="facebook" xmlns="http://www.w3.org/2000/svg"><path d="M9.189 0A9.217 9.217 0 0 0 0 9.189V68a9.217 9.217 0 0 0 9.189 9.189h30.933a1.838 1.838 0 0 0 .6 0h10.427a1.838 1.838 0 0 0 .6 0H68A9.217 9.217 0 0 0 77.186 68V9.189A9.217 9.217 0 0 0 68 0Zm0 3.676H68a5.486 5.486 0 0 1 5.513 5.513V68A5.486 5.486 0 0 1 68 73.511H53.3V47.782h7.021l2.569-12.864H53.3v-3.676c0-1.025.1-1.1.441-1.328a7.167 7.167 0 0 1 3.234-.51h5.513V19.056l-1.048-.5a25.352 25.352 0 0 0-9.979-2.017 12.093 12.093 0 0 0-9.709 4.361 16.342 16.342 0 0 0-3.159 10.337v3.676H33.08v12.869h5.513v25.729h-29.4A5.486 5.486 0 0 1 3.676 68V9.189a5.486 5.486 0 0 1 5.513-5.513Zm42.269 16.54a19.34 19.34 0 0 1 7.351 1.284v4.225h-1.838a9.26 9.26 0 0 0-5.237 1.1 5.193 5.193 0 0 0-2.114 4.411v7.351h8.78L57.3 44.1h-7.68v29.4h-7.351V44.1h-5.514v-5.507h5.513v-7.351a12.827 12.827 0 0 1 2.355-8.04 8.109 8.109 0 0 1 6.835-2.987Z" fill="#fff"/></symbol><symbol viewBox="0 0 77.211 77.211" id="instagram" xmlns="http://www.w3.org/2000/svg"><path d="M22.812 0A22.84 22.84 0 0 0 0 22.812V54.4a22.84 22.84 0 0 0 22.812 22.811H54.4A22.84 22.84 0 0 0 77.211 54.4V22.812A22.84 22.84 0 0 0 54.4 0Zm0 3.51H54.4a19.277 19.277 0 0 1 19.3 19.3V54.4a19.277 19.277 0 0 1-19.3 19.3H22.812A19.277 19.277 0 0 1 3.51 54.4V22.812A19.277 19.277 0 0 1 22.812 3.51Zm36.851 10.528a3.51 3.51 0 1 0 3.51 3.51 3.51 3.51 0 0 0-3.51-3.51ZM38.605 19.3a19.3 19.3 0 1 0 19.3 19.3 19.329 19.329 0 0 0-19.3-19.3Zm0 3.51a15.793 15.793 0 1 1-15.793 15.795 15.767 15.767 0 0 1 15.793-15.793Z" fill="#fff"/></symbol><symbol viewBox="0 0 36.6 64.6" xml:space="preserve" id="logo" xmlns="http://www.w3.org/2000/svg"><path fill="#76B82A" d="M17 .2h2.6V12H17z"/><path fill="#76B82A" d="M27.3 14.1c5.1 0 9.2-4.1 9.2-9.2V0H21.7v16.7h-2.2V14H17v2.7h-2V0H.1v4.8C.1 9.9 4.2 14 9.3 14h3v2.6H9.2c-5.1 0-9.2 4.1-9.2 9.2v3.8h2.6v-3.8c0-3.7 3-6.7 6.7-6.7h3.2v10.2H15V19.2h2v10.2h2.6V19.2h2.2v10.2h2.6V19.2h3c3.7 0 6.7 3 6.7 6.7v3.8h2.6v-3.8c0-5.1-4.1-9.2-9.2-9.2h-3v-2.6h2.8zm-3-11.5H34v2.3c0 3.7-3 6.7-6.7 6.7h-3v-9zm-11.9 8.9h-3c-3.7 0-6.7-3-6.7-6.7V2.6h9.7v8.9z"/><path fill="#fff" d="M29 33.9c-.1 0-.1 0 0 0h-1.5V49h2v-3.9c.9-.2 1.8-.5 2.7-1s1.6-1.1 2.3-1.8 1.2-1.5 1.6-2.5c.4-.9.6-1.9.6-3v-3H29zm5.6 3c0 .7-.1 1.3-.3 1.9s-.4 1.1-.7 1.6-.6.9-1 1.2-.7.6-1.1.9c-.4.2-.8.4-1.1.5-.4.1-.7.2-1 .2v-7.5h5.2v1.2zM1.7 33.9c-.1 0-.1 0 0 0H.2V49h2v-3.9c.9-.2 1.8-.5 2.7-1s1.6-1.1 2.3-1.8 1.2-1.5 1.6-2.5c.4-.9.6-1.9.6-3v-3H1.7zm5.6 3c0 .7-.1 1.3-.3 1.9s-.4 1.1-.7 1.6-.6.9-1 1.2-.7.6-1.1.9c-.4.2-.8.4-1.1.5-.4.1-.7.2-1 .2v-7.5h5.2v1.2zM13.1 49l-2 .1V33.9h2zM23.7 49V37.6c0-.5 0-.8-.1-1.1s-.2-.5-.3-.6-.3-.2-.4-.2h-.6c-.1 0-.3.1-.4.2s-.2.3-.3.6-.1-.3-.1.2V49h-2V37.6c0-.5 0-.8-.1-1.1s-.2-.5-.3-.6-.3-.2-.4-.2H18c-.1 0-.3.1-.4.2s-.2.3-.3.6c-.3.3-.3.7-.3 1.1V49h-2V37.9c0-.7.1-1.4.3-1.9s.4-.9.7-1.2.6-.5 1-.7c.4-.1.7-.2 1.1-.2h.4c.2 0 .4.1.6.1.2.1.4.2.7.3.2.1.4.3.6.5.2-.2.3-.4.5-.5l.6-.3c.2-.1.4-.1.5-.1h.4c.4 0 .8.1 1.2.2s.7.4 1 .7.5.7.7 1.2.3 1.1.3 1.9v11.2l-1.9-.1z"/><path fill="#76B82A" d="m1.3 54.1-.3-.5 1.2-.6.3.5-1.2.6zM.2 58.4v-4h2.9v.7H1v.9h2.1v.7H1v1.1h2.1v.7H.2zM5.4 56.6h-.6v1.1H5c.4 0 1.4-.1 1.4-.6 0-.4-.7-.5-1-.5m.1-1.5h-.7v1H5c.4 0 1.1 0 1.1-.6.1-.4-.4-.4-.6-.4M5 58.4H4v-4h1.5c.6 0 1.4.1 1.4.9 0 .5-.4.8-.9.9.5.1 1.1.3 1.1.9.1 1.1-1.3 1.3-2.1 1.3M9 54.1l-.3-.5L10 53l.3.5-1.3.6zm-1 4.3v-4h2.9v.7H8.8v.9h2.1v.7H8.8v1.1h2.1v.7H8zM14.3 58.4l-1.7-2.6v2.6h-.8v-4h.8l1.7 2.6v-2.6h.8v4zM16.1 54.4h.8v4h-.8zM18.5 58.5H18v-.7c.2 0 .3.1.5.1.3 0 1-.1 1-.5 0-.3-.3-.5-.7-.7-.5-.2-1-.5-1-1.2 0-.8 1.1-1.2 1.8-1.2h.5v.7c-.2 0-.3-.1-.5-.1-.3 0-.9.1-.9.5 0 .3.3.4.7.6.5.2 1.1.5 1.1 1.2-.2 1-1.2 1.3-2 1.3M22.6 55.1v3.3h-.8v-3.3h-1.1v-.7h2.9v.7zM24.3 58.4v-4h2.8v.7H25v.9h2.1v.7H25v1h2.1v.7zM29.5 55.1h-.7v1.3h.4c.5 0 1.1-.2 1.1-.7s-.5-.6-.8-.6m.7 3.3-1.4-1.6v1.6H28v-4h1.7c.7 0 1.4.3 1.4 1.1 0 .7-.6 1.2-1.2 1.3l1.4 1.6h-1.1zM31.9 54.4h.8v4h-.8zM33.7 58.4v-4h2.9v.7h-2.1v.9h2.1v.7h-2.1v1h2.1v.7zM.9 64.5H.1v-3h.7V63c.2-.7.9-1.5 1.7-1.6v.9c-1 .2-1.5 1.3-1.6 2.2M4.7 62.1c-.4 0-.7.2-.9.5h1.5c0-.3-.3-.5-.6-.5m1.2 1.1H3.7c0 .5.3.7.8.7.3 0 .6-.1.8-.3v.7c-.3.1-.6.2-.9.2-.9 0-1.5-.5-1.5-1.4 0-1 .8-1.8 1.8-1.8.9.1 1.3.7 1.3 1.5 0 .1 0 .2-.1.4M8.7 64.6c-1.2 0-2.1-.8-2.1-2.1 0-1.2 1.2-2.4 2.4-2.4.3 0 .7 0 1 .2v.8c-.3-.1-.6-.2-1-.2-.9 0-1.6.8-1.6 1.6s.5 1.3 1.3 1.3c.5 0 .9-.2 1.2-.5v.9c-.3.3-.7.4-1.2.4M12.5 61h-.7v1.4h.4c.5 0 1.1-.2 1.1-.8 0-.5-.4-.6-.8-.6m.8 3.5-1.5-1.7v1.7H11v-4.2h1.7c.8 0 1.4.3 1.4 1.2 0 .7-.6 1.2-1.3 1.4l1.5 1.7h-1zM16.3 60l-.3-.5 1.3-.7.3.5-1.3.7zm-1.1 4.5v-4.2h3v.7H16v1h2.2v.7H16v1.1h2.2v.7h-3zM21 61.5l-.6 1.5h1.3l-.7-1.5zm1.3 3-.4-.8h-1.8l-.3.8h-.9l1.8-4.2h.6l1.8 4.2h-.8zM25.1 61v3.5h-.8V61h-1.2v-.7h3.1v.7zM27 60.3h.8v4.2H27zM31 64.5h-.6l-1.9-4.2h1l1.2 3 1.3-3h.9zM33.6 64.5v-4.2h3v.7h-2.2v1h2.2v.7h-2.2v1.1h2.2v.7z"/></symbol><symbol viewBox="0 0 36.6 49.1" xml:space="preserve" id="logo--footer" xmlns="http://www.w3.org/2000/svg"><path fill="#0B101D" d="M17 .2h2.6V12H17z"/><path fill="#0B101D" d="M27.3 14.1c5.1 0 9.2-4.1 9.2-9.2V0H21.7v16.7h-2.2V14H17v2.7h-2V0H.1v4.8C.1 9.9 4.2 14 9.3 14h3v2.6H9.2c-5.1 0-9.2 4.1-9.2 9.2v3.8h2.6v-3.8c0-3.7 3-6.7 6.7-6.7h3.2v10.2H15V19.2h2v10.2h2.6V19.2h2.2v10.2h2.6V19.2h3c3.7 0 6.7 3 6.7 6.7v3.8h2.6v-3.8c0-5.1-4.1-9.2-9.2-9.2h-3v-2.6h2.8zm-3-11.5H34v2.3c0 3.7-3 6.7-6.7 6.7h-3v-9zm-11.9 8.9h-3c-3.7 0-6.7-3-6.7-6.7V2.6h9.7v8.9z"/><path fill="#fff" d="M29 33.9c-.1 0-.1 0 0 0h-1.5V49h2v-3.9c.9-.2 1.8-.5 2.7-1s1.6-1.1 2.3-1.8 1.2-1.5 1.6-2.5c.4-.9.6-1.9.6-3v-3H29zm5.6 3c0 .7-.1 1.3-.3 1.9s-.4 1.1-.7 1.6-.6.9-1 1.2-.7.6-1.1.9c-.4.2-.8.4-1.1.5-.4.1-.7.2-1 .2v-7.5h5.2v1.2zM1.7 33.9c-.1 0-.1 0 0 0H.2V49h2v-3.9c.9-.2 1.8-.5 2.7-1s1.6-1.1 2.3-1.8 1.2-1.5 1.6-2.5c.4-.9.6-1.9.6-3v-3H1.7zm5.6 3c0 .7-.1 1.3-.3 1.9s-.4 1.1-.7 1.6-.6.9-1 1.2-.7.6-1.1.9c-.4.2-.8.4-1.1.5-.4.1-.7.2-1 .2v-7.5h5.2v1.2zM13.1 49l-2 .1V33.9h2zM23.7 49V37.6c0-.5 0-.8-.1-1.1s-.2-.5-.3-.6-.3-.2-.4-.2h-.6c-.1 0-.3.1-.4.2s-.2.3-.3.6-.1-.3-.1.2V49h-2V37.6c0-.5 0-.8-.1-1.1s-.2-.5-.3-.6-.3-.2-.4-.2H18c-.1 0-.3.1-.4.2s-.2.3-.3.6c-.3.3-.3.7-.3 1.1V49h-2V37.9c0-.7.1-1.4.3-1.9s.4-.9.7-1.2.6-.5 1-.7c.4-.1.7-.2 1.1-.2h.4c.2 0 .4.1.6.1.2.1.4.2.7.3.2.1.4.3.6.5.2-.2.3-.4.5-.5l.6-.3c.2-.1.4-.1.5-.1h.4c.4 0 .8.1 1.2.2s.7.4 1 .7.5.7.7 1.2.3 1.1.3 1.9v11.2l-1.9-.1z"/></symbol><symbol viewBox="0 0 36.6 29.7" xml:space="preserve" id="logo--page" xmlns="http://www.w3.org/2000/svg"><path fill="#75B72D" d="M17 .2h2.6V12H17z"/><path fill="#75B72D" d="M27.3 14.1c5.1 0 9.2-4.1 9.2-9.2V0H21.7v16.7h-2.2V14H17v2.7h-2V0H.1v4.8C.1 9.9 4.2 14 9.3 14h3v2.6H9.2c-5.1 0-9.2 4.1-9.2 9.2v3.8h2.6v-3.8c0-3.7 3-6.7 6.7-6.7h3.2v10.2H15V19.2h2v10.2h2.6V19.2h2.2v10.2h2.6V19.2h3c3.7 0 6.7 3 6.7 6.7v3.8h2.6v-3.8c0-5.1-4.1-9.2-9.2-9.2h-3v-2.6h2.8zm-3-11.5H34v2.3c0 3.7-3 6.7-6.7 6.7h-3v-9zm-11.9 8.9h-3c-3.7 0-6.7-3-6.7-6.7V2.6h9.7v8.9z"/></symbol></svg>