<svg xmlns="http://www.w3.org/2000/svg" xml:space="preserve" viewBox="0 0 60 80"><path d="M59.4 28.2h-15c-.3 0-.6.3-.6.6v.9c0 .3.2.6.6.6H58v36.9H2V30.3h13.6c.3 0 .6-.3.6-.6v-.9c0-.3-.2-.6-.6-.6H.6c-.3 0-.6.3-.6.6v39.8c0 .3.2.6.6.6H29v8.6H17.5c-.3 0-.6.3-.6.6v.9c0 .3.2.6.6.6h25c.3 0 .6-.3.6-.6v-.9c0-.3-.2-.6-.6-.6H31v-8.6h28.4c.3 0 .6-.3.6-.6V28.8c0-.3-.2-.6-.6-.6"/><circle cx="29.9" cy="56.3" r="1.2"/><circle cx="29.9" cy="49.4" r="1.2"/><circle cx="29.9" cy="42.6" r="1.2"/><circle cx="29.9" cy="35.7" r="1.2"/><circle cx="29.9" cy="28.8" r="1.2"/><circle cx="29.9" cy="22" r="1.2"/><circle cx="29.9" cy="15.1" r="1.2"/><path d="M29.9 9.5c-2.6 0-4.6-2.1-4.6-4.7s2-4.8 4.6-4.8 4.6 2.1 4.6 4.7-2.1 4.8-4.6 4.8m0-7.5c-1.4 0-2.6 1.2-2.6 2.7s1.2 2.7 2.6 2.7 2.6-1.2 2.6-2.7S31.3 2 29.9 2M18.6 14.1H13c-.5-2.1-2.3-3.7-4.5-3.7-2.6 0-4.6 2.1-4.6 4.7s2.1 4.7 4.6 4.7c2.2 0 4-1.6 4.5-3.7h5.5S21 16 21 19.2v28.4c0 .3.2.6.6.6h.9c.3 0 .6-.3.6-.6V19.2c0-5.3-4.5-5.1-4.5-5.1M8.5 17.8c-1.4 0-2.6-1.2-2.6-2.7s1.2-2.7 2.6-2.7 2.6 1.2 2.6 2.7-1.1 2.7-2.6 2.7M36.7 19.2v28.4c0 .3.2.6.6.6h.9c.3 0 .6-.3.6-.6V19.2c0-3.2 2.5-3.1 2.5-3.1h5.5c.5 2.1 2.3 3.7 4.5 3.7 2.6 0 4.6-2.1 4.6-4.7s-2.1-4.7-4.6-4.7c-2.2 0-4 1.6-4.5 3.7h-5.5s-4.6-.2-4.6 5.1m12-4.1c0-1.5 1.2-2.7 2.6-2.7s2.6 1.2 2.6 2.7-1.2 2.7-2.6 2.7-2.6-1.2-2.6-2.7"/></svg>