<svg xmlns="http://www.w3.org/2000/svg" width="51.181" height="60.588" viewBox="0 0 51.181 60.588">
    <g id="b6792c146aa598ecc38e2b75fe4133ed" transform="translate(362.919 249.623)">
        <g id="Groupe_19" data-name="Groupe 19" transform="translate(-362.919 -249.623)">
            <path id="Tracé_27" data-name="Tracé 27" d="M86.242-116.394c-.143.334-.19,13.923-.143,30.182l.143,29.562,8.582.143,8.582.1,16.688-9.3c9.2-5.1,16.879-9.584,17.118-9.917.239-.382-.381-2.146-1.812-5.007-2.1-4.244-2.241-4.339-3.338-3.815l-1.192.524L132.73-80.3l1.811,3.672-12.634,7.057c-6.961,3.862-12.683,6.962-12.778,6.866s5.1-6.58,11.538-14.447c6.39-7.82,11.873-14.638,12.111-15.115.381-.668,0-1.144-2.051-2.67-4.624-3.386-5.054-3.624-5.865-2.956a1.965,1.965,0,0,0-.715,1,13.024,13.024,0,0,0,2.861,2.384c1.86,1.287,2.718,2.194,2.48,2.527-2.432,3.147-21.694,26.511-21.838,26.511s-.143-.191,0-.381c.715-1.144,14.59-37,14.59-37.715,0-.62-1.669-1.526-6.532-3.528-5.96-2.432-6.628-2.575-7.152-1.907a3.027,3.027,0,0,0-.619,1.144,39.86,39.86,0,0,0,5.626,2.623c3.052,1.24,5.674,2.336,5.769,2.432.239.143-14.209,36.9-14.686,37.477-.19.191-.381-11.157-.381-25.176-.048-14.018-.19-25.7-.381-25.986C103.407-117.253,86.528-117.109,86.242-116.394Zm15.5,29.7V-58.8H88.387v-55.787h13.35v27.893Z" transform="translate(-86.081 117)"/>
        </g>
    </g>
</svg>
