<svg xmlns="http://www.w3.org/2000/svg" width="69.783" height="69.988" viewBox="0 0 69.783 69.988">
    <g id="_546daf2d7fafdc5b73b93229a753f2f6" data-name="546daf2d7fafdc5b73b93229a753f2f6" transform="translate(-11.44 79.993) rotate(-90)">
        <g id="Groupe_20" data-name="Groupe 20" transform="translate(10.004 11.44)">
            <path id="Tracé_28" data-name="Tracé 28" d="M13.983-499.449a5.311,5.311,0,0,0-3.839,4.366c-.194,1.344-.18,61.214,0,62.406.249,1.469,1.151,2.979,1.746,2.9.221-.028,2.994-2.7,8.786-8.5l8.454-8.454v-33.746H63.154l8.412-8.412c6.944-6.944,8.426-8.482,8.426-8.787,0-.457-.6-1-1.663-1.5l-.762-.361-31.528-.028C27.953-499.56,14.288-499.518,13.983-499.449ZM77.844-497.9l.554.264-7.955,7.886-7.954,7.885H57.541v-5.017c0-4.463-.028-5.031-.236-5.266a.774.774,0,0,0-1.151.014,46.929,46.929,0,0,0-.139,5.266v5H46.177v-3.243c0-3.2,0-3.257-.3-3.464-.416-.291-.61-.277-.943.056-.264.263-.277.457-.277,3.464v3.187H35.228v-5a46.925,46.925,0,0,0-.139-5.266A.8.8,0,0,0,34-492.214a35.919,35.919,0,0,0-.18,5.238l-.041,5.045L31-481.889c-2.633.028-2.785.041-3.007.318s-.249.623-.249,2.91v2.62H22.853c-4.2,0-4.933.028-5.2.221a.67.67,0,0,0-.069,1.053c.208.236.554.249,5.2.249h4.961v9.84H24.627c-2.966,0-3.132.014-3.409.291a.713.713,0,0,0,.041,1.026,19.582,19.582,0,0,0,3.3.18l3.187.041v9.41H22.769c-5.391,0-5.419,0-5.419.749,0,.638.056.638,5.363.638h5.031v5.058L19.86-439.4l-7.886,7.885-.222-.43c-.208-.388-.221-3.326-.221-32.014v-31.571l.361-.721a3.406,3.406,0,0,1,2-1.76c.526-.166,5.433-.18,32.014-.166C76.057-498.146,77.318-498.132,77.844-497.9Z" transform="translate(-10.004 499.56)"/>
        </g>
    </g>
</svg>
