<svg xmlns="http://www.w3.org/2000/svg" width="77.186" height="77.211" viewBox="0 0 77.186 77.211">
    <path id="icons8-facebook" d="M13.189,4A9.217,9.217,0,0,0,4,13.189V72a9.217,9.217,0,0,0,9.189,9.189H44.122a1.838,1.838,0,0,0,.6,0H55.149a1.838,1.838,0,0,0,.6,0H72A9.217,9.217,0,0,0,81.186,72V13.189A9.217,9.217,0,0,0,72,4Zm0,3.676H72a5.486,5.486,0,0,1,5.513,5.513V72A5.486,5.486,0,0,1,72,77.511H57.3V51.782h7.021L66.89,38.918H57.3V35.242c0-1.025.1-1.1.441-1.328a7.167,7.167,0,0,1,3.234-.51h5.513V23.056l-1.048-.5a25.352,25.352,0,0,0-9.979-2.017A12.093,12.093,0,0,0,45.752,24.9a16.342,16.342,0,0,0-3.159,10.337v3.676H37.08V51.782h5.513V77.511h-29.4A5.486,5.486,0,0,1,7.676,72V13.189A5.486,5.486,0,0,1,13.189,7.676Zm42.269,16.54A19.34,19.34,0,0,1,62.809,25.5v4.225H60.971a9.26,9.26,0,0,0-5.237,1.1,5.193,5.193,0,0,0-2.114,4.411v7.351H62.4l-1.1,5.513H53.62v29.4H46.269v-29.4H40.755V42.593h5.513V35.242a12.827,12.827,0,0,1,2.355-8.04A8.109,8.109,0,0,1,55.458,24.215Z" transform="translate(-4 -4)" fill="#fff"/>
</svg>
