<svg xmlns="http://www.w3.org/2000/svg" width="77.211" height="77.211" viewBox="0 0 77.211 77.211">
    <path id="icons8-instagram" d="M25.812,3A22.84,22.84,0,0,0,3,25.812V57.4A22.84,22.84,0,0,0,25.812,80.211H57.4A22.84,22.84,0,0,0,80.211,57.4V25.812A22.84,22.84,0,0,0,57.4,3Zm0,3.51H57.4a19.277,19.277,0,0,1,19.3,19.3V57.4A19.277,19.277,0,0,1,57.4,76.7H25.812A19.277,19.277,0,0,1,6.51,57.4V25.812A19.277,19.277,0,0,1,25.812,6.51ZM62.663,17.038a3.51,3.51,0,1,0,3.51,3.51A3.51,3.51,0,0,0,62.663,17.038ZM41.605,22.3a19.3,19.3,0,1,0,19.3,19.3A19.329,19.329,0,0,0,41.605,22.3Zm0,3.51A15.793,15.793,0,1,1,25.812,41.605,15.767,15.767,0,0,1,41.605,25.812Z" transform="translate(-3 -3)" fill="#fff"/>
</svg>
