<?xml version="1.0" encoding="UTF-8"?>
<svg enable-background="new 0 0 36.6 29.7" version="1.1" viewBox="0 0 36.6 29.7" xml:space="preserve" xmlns="http://www.w3.org/2000/svg">
    <rect fill="#75B72D" x="17" y=".2" width="2.6" height="11.8"/>
    <path fill="#75B72D" d="M27.3,14.1c5.1,0,9.2-4.1,9.2-9.2V0H21.7v16.7h-2.2V14H17v2.7h-2V0H0.1v4.8c0,5.1,4.1,9.2,9.2,9.2h3v2.6H9.2  c-5.1,0-9.2,4.1-9.2,9.2v3.8h2.6v-3.8c0-3.7,3-6.7,6.7-6.7h3.2v10.2H15V19.2h2v10.2h2.6V19.2h2.2v10.2h2.6V19.2h3  c3.7,0,6.7,3,6.7,6.7v3.8h2.6v-3.8c0-5.1-4.1-9.2-9.2-9.2h-3v-2.6H27.3z M24.3,2.6H34v2.3c0,3.7-3,6.7-6.7,6.7h-3V2.6z M12.4,11.5  h-3c-3.7,0-6.7-3-6.7-6.7V2.6h9.7V11.5z"/>
</svg>
