<?xml version="1.0" encoding="UTF-8"?>
<svg enable-background="new 0 0 36.6 64.6" version="1.1" viewBox="0 0 36.6 64.6" xml:space="preserve" xmlns="http://www.w3.org/2000/svg">
    <rect fill="#76B82A" x="17" y=".2" width="2.6" height="11.8"/>
    <path fill="#76B82A" d="M27.3,14.1c5.1,0,9.2-4.1,9.2-9.2V0H21.7v16.7h-2.2V14H17v2.7h-2V0H0.1v4.8c0,5.1,4.1,9.2,9.2,9.2h3v2.6H9.2  c-5.1,0-9.2,4.1-9.2,9.2v3.8h2.6v-3.8c0-3.7,3-6.7,6.7-6.7h3.2v10.2H15V19.2h2v10.2h2.6V19.2h2.2v10.2h2.6V19.2h3  c3.7,0,6.7,3,6.7,6.7v3.8h2.6v-3.8c0-5.1-4.1-9.2-9.2-9.2h-3v-2.6H27.3z M24.3,2.6H34v2.3c0,3.7-3,6.7-6.7,6.7h-3V2.6z M12.4,11.5  h-3c-3.7,0-6.7-3-6.7-6.7V2.6h9.7V11.5z"/>
    <path fill="#fff" d="m29 33.9c-0.1 0-0.1 0 0 0h-1.5v15.1h2v-3.9c0.9-0.2 1.8-0.5 2.7-1s1.6-1.1 2.3-1.8 1.2-1.5 1.6-2.5c0.4-0.9 0.6-1.9 0.6-3v-3h-7.7zm5.6 3c0 0.7-0.1 1.3-0.3 1.9s-0.4 1.1-0.7 1.6-0.6 0.9-1 1.2-0.7 0.6-1.1 0.9c-0.4 0.2-0.8 0.4-1.1 0.5-0.4 0.1-0.7 0.2-1 0.2v-7.5h5.2s0 0.7 0 1.2z"/>
    <path fill="#fff" d="m1.7 33.9c-0.1 0-0.1 0 0 0h-1.5v15.1h2v-3.9c0.9-0.2 1.8-0.5 2.7-1s1.6-1.1 2.3-1.8 1.2-1.5 1.6-2.5c0.4-0.9 0.6-1.9 0.6-3v-3h-7.7zm5.6 3c0 0.7-0.1 1.3-0.3 1.9s-0.4 1.1-0.7 1.6-0.6 0.9-1 1.2-0.7 0.6-1.1 0.9c-0.4 0.2-0.8 0.4-1.1 0.5-0.4 0.1-0.7 0.2-1 0.2v-7.5h5.2s0 0.7 0 1.2z"/>
    <polygon fill="#fff" points="13.1 49 11.1 49.1 11.1 33.9 13.1 33.9"/>
    <path fill="#fff" d="m23.7 49v-11.4c0-0.5 0-0.8-0.1-1.1s-0.2-0.5-0.3-0.6-0.3-0.2-0.4-0.2h-0.3-0.3c-0.1 0-0.3 0.1-0.4 0.2s-0.2 0.3-0.3 0.6-0.1-0.3-0.1 0.2v12.3h-2v-11.4c0-0.5 0-0.8-0.1-1.1s-0.2-0.5-0.3-0.6-0.3-0.2-0.4-0.2h-0.4-0.3c-0.1 0-0.3 0.1-0.4 0.2s-0.2 0.3-0.3 0.6c-0.3 0.3-0.3 0.7-0.3 1.1v11.4h-2v-11.1c0-0.7 0.1-1.4 0.3-1.9s0.4-0.9 0.7-1.2 0.6-0.5 1-0.7c0.4-0.1 0.7-0.2 1.1-0.2h0.4c0.2 0 0.4 0.1 0.6 0.1 0.2 0.1 0.4 0.2 0.7 0.3 0.2 0.1 0.4 0.3 0.6 0.5 0.2-0.2 0.3-0.4 0.5-0.5l0.6-0.3c0.2-0.1 0.4-0.1 0.5-0.1h0.4c0.4 0 0.8 0.1 1.2 0.2s0.7 0.4 1 0.7 0.5 0.7 0.7 1.2 0.3 1.1 0.3 1.9v11.2l-1.9-0.1z"/>
    <path fill="#76B82A" d="M1.3,54.1L1,53.6L2.2,53l0.3,0.5L1.3,54.1z M0.2,58.4v-4h2.9v0.7H1V56h2.1v0.7H1v1.1h2.1v0.7H0.2z"/>
    <path fill="#76B82A" d="m5.4 56.6h-0.6v1.1h0.2c0.4 0 1.4-0.1 1.4-0.6 0-0.4-0.7-0.5-1-0.5m0.1-1.5h-0.7v1h0.2c0.4 0 1.1 0 1.1-0.6 0.1-0.4-0.4-0.4-0.6-0.4m-0.5 3.3h-1v-4h1.5c0.6 0 1.4 0.1 1.4 0.9 0 0.5-0.4 0.8-0.9 0.9 0.5 0.1 1.1 0.3 1.1 0.9 0.1 1.1-1.3 1.3-2.1 1.3"/>
    <path fill="#76B82A" d="M9,54.1l-0.3-0.5L10,53l0.3,0.5L9,54.1z M8,58.4v-4h2.9v0.7H8.8V56h2.1v0.7H8.8v1.1h2.1v0.7H8z"/>
    <polygon fill="#76B82A" points="14.3 58.4 12.6 55.8 12.6 58.4 11.8 58.4 11.8 54.4 12.6 54.4 14.3 57 14.3 54.4 15.1 54.4 15.1 58.4"/>
    <rect fill="#76B82A" x="16.1" y="54.4" width=".8" height="4"/>
    <path fill="#76B82A" d="m18.5 58.5h-0.5v-0.7c0.2 0 0.3 0.1 0.5 0.1 0.3 0 1-0.1 1-0.5 0-0.3-0.3-0.5-0.7-0.7-0.5-0.2-1-0.5-1-1.2 0-0.8 1.1-1.2 1.8-1.2h0.5v0.7c-0.2 0-0.3-0.1-0.5-0.1-0.3 0-0.9 0.1-0.9 0.5 0 0.3 0.3 0.4 0.7 0.6 0.5 0.2 1.1 0.5 1.1 1.2-0.2 1-1.2 1.3-2 1.3"/>
    <polygon fill="#76B82A" points="22.6 55.1 22.6 58.4 21.8 58.4 21.8 55.1 20.7 55.1 20.7 54.4 23.6 54.4 23.6 55.1"/>
    <polygon fill="#76B82A" points="24.3 58.4 24.3 54.4 27.1 54.4 27.1 55.1 25 55.1 25 56 27.1 56 27.1 56.7 25 56.7 25 57.7 27.1 57.7 27.1 58.4"/>
    <path fill="#76B82A" d="m29.5 55.1h-0.7v1.3h0.4c0.5 0 1.1-0.2 1.1-0.7s-0.5-0.6-0.8-0.6m0.7 3.3-1.4-1.6v1.6h-0.8v-4h1.7c0.7 0 1.4 0.3 1.4 1.1 0 0.7-0.6 1.2-1.2 1.3l1.4 1.6h-1.1z"/>
    <rect fill="#76B82A" x="31.9" y="54.4" width=".8" height="4"/>
    <polygon fill="#76B82A" points="33.7 58.4 33.7 54.4 36.6 54.4 36.6 55.1 34.5 55.1 34.5 56 36.6 56 36.6 56.7 34.5 56.7 34.5 57.7 36.6 57.7 36.6 58.4"/>
    <path fill="#76B82A" d="m0.9 64.5h-0.8v-3h0.7v1.5c0.2-0.7 0.9-1.5 1.7-1.6v0.9c-1 0.2-1.5 1.3-1.6 2.2"/>
    <path fill="#76B82A" d="m4.7 62.1c-0.4 0-0.7 0.2-0.9 0.5h1.5c0-0.3-0.3-0.5-0.6-0.5m1.2 1.1h-2.2c0 0.5 0.3 0.7 0.8 0.7 0.3 0 0.6-0.1 0.8-0.3v0.7c-0.3 0.1-0.6 0.2-0.9 0.2-0.9 0-1.5-0.5-1.5-1.4 0-1 0.8-1.8 1.8-1.8 0.9 0.1 1.3 0.7 1.3 1.5 0 0.1 0 0.2-0.1 0.4"/>
    <path fill="#76B82A" d="m8.7 64.6c-1.2 0-2.1-0.8-2.1-2.1 0-1.2 1.2-2.4 2.4-2.4 0.3 0 0.7 0 1 0.2v0.8c-0.3-0.1-0.6-0.2-1-0.2-0.9 0-1.6 0.8-1.6 1.6s0.5 1.3 1.3 1.3c0.5 0 0.9-0.2 1.2-0.5v0.9c-0.3 0.3-0.7 0.4-1.2 0.4"/>
    <path fill="#76B82A" d="m12.5 61h-0.7v1.4h0.4c0.5 0 1.1-0.2 1.1-0.8 0-0.5-0.4-0.6-0.8-0.6m0.8 3.5-1.5-1.7v1.7h-0.8v-4.2h1.7c0.8 0 1.4 0.3 1.4 1.2 0 0.7-0.6 1.2-1.3 1.4l1.5 1.7h-1z"/>
    <path fill="#76B82A" d="m16.3 60-0.3-0.5 1.3-0.7 0.3 0.5-1.3 0.7zm-1.1 4.5v-4.2h3v0.7h-2.2v1h2.2v0.7h-2.2v1.1h2.2v0.7h-3z"/>
    <path fill="#76B82A" d="m21 61.5-0.6 1.5h1.3l-0.7-1.5zm1.3 3-0.4-0.8h-1.8l-0.3 0.8h-0.9l1.8-4.2h0.6l1.8 4.2h-0.8z"/>
    <polygon fill="#76B82A" points="25.1 61 25.1 64.5 24.3 64.5 24.3 61 23.1 61 23.1 60.3 26.2 60.3 26.2 61"/>
    <rect fill="#76B82A" x="27" y="60.3" width=".8" height="4.2"/>
    <polygon fill="#76B82A" points="31 64.5 30.4 64.5 28.5 60.3 29.5 60.3 30.7 63.3 32 60.3 32.9 60.3"/>
    <polygon fill="#76B82A" points="33.6 64.5 33.6 60.3 36.6 60.3 36.6 61 34.4 61 34.4 62 36.6 62 36.6 62.7 34.4 62.7 34.4 63.8 36.6 63.8 36.6 64.5"/>
</svg>
