<?xml version="1.0" encoding="UTF-8"?>
<svg enable-background="new 0 0 36.6 49.1" version="1.1" viewBox="0 0 36.6 49.1" xml:space="preserve" xmlns="http://www.w3.org/2000/svg">
    <rect fill="#0B101D" x="17" y=".2" width="2.6" height="11.8"/>
    <path fill="#0B101D" d="M27.3,14.1c5.1,0,9.2-4.1,9.2-9.2V0H21.7v16.7h-2.2V14H17v2.7h-2V0H0.1v4.8c0,5.1,4.1,9.2,9.2,9.2h3v2.6H9.2  c-5.1,0-9.2,4.1-9.2,9.2v3.8h2.6v-3.8c0-3.7,3-6.7,6.7-6.7h3.2v10.2H15V19.2h2v10.2h2.6V19.2h2.2v10.2h2.6V19.2h3  c3.7,0,6.7,3,6.7,6.7v3.8h2.6v-3.8c0-5.1-4.1-9.2-9.2-9.2h-3v-2.6H27.3z M24.3,2.6H34v2.3c0,3.7-3,6.7-6.7,6.7h-3V2.6z M12.4,11.5  h-3c-3.7,0-6.7-3-6.7-6.7V2.6h9.7V11.5z"/>
    <path fill="#fff" d="m29 33.9c-0.1 0-0.1 0 0 0h-1.5v15.1h2v-3.9c0.9-0.2 1.8-0.5 2.7-1s1.6-1.1 2.3-1.8 1.2-1.5 1.6-2.5c0.4-0.9 0.6-1.9 0.6-3v-3h-7.7zm5.6 3c0 0.7-0.1 1.3-0.3 1.9s-0.4 1.1-0.7 1.6-0.6 0.9-1 1.2-0.7 0.6-1.1 0.9c-0.4 0.2-0.8 0.4-1.1 0.5-0.4 0.1-0.7 0.2-1 0.2v-7.5h5.2s0 0.7 0 1.2z"/>
    <path fill="#fff" d="m1.7 33.9c-0.1 0-0.1 0 0 0h-1.5v15.1h2v-3.9c0.9-0.2 1.8-0.5 2.7-1s1.6-1.1 2.3-1.8 1.2-1.5 1.6-2.5c0.4-0.9 0.6-1.9 0.6-3v-3h-7.7zm5.6 3c0 0.7-0.1 1.3-0.3 1.9s-0.4 1.1-0.7 1.6-0.6 0.9-1 1.2-0.7 0.6-1.1 0.9c-0.4 0.2-0.8 0.4-1.1 0.5-0.4 0.1-0.7 0.2-1 0.2v-7.5h5.2s0 0.7 0 1.2z"/>
    <polygon fill="#fff" points="13.1 49 11.1 49.1 11.1 33.9 13.1 33.9"/>
    <path fill="#fff" d="m23.7 49v-11.4c0-0.5 0-0.8-0.1-1.1s-0.2-0.5-0.3-0.6-0.3-0.2-0.4-0.2h-0.3-0.3c-0.1 0-0.3 0.1-0.4 0.2s-0.2 0.3-0.3 0.6-0.1-0.3-0.1 0.2v12.3h-2v-11.4c0-0.5 0-0.8-0.1-1.1s-0.2-0.5-0.3-0.6-0.3-0.2-0.4-0.2h-0.4-0.3c-0.1 0-0.3 0.1-0.4 0.2s-0.2 0.3-0.3 0.6c-0.3 0.3-0.3 0.7-0.3 1.1v11.4h-2v-11.1c0-0.7 0.1-1.4 0.3-1.9s0.4-0.9 0.7-1.2 0.6-0.5 1-0.7c0.4-0.1 0.7-0.2 1.1-0.2h0.4c0.2 0 0.4 0.1 0.6 0.1 0.2 0.1 0.4 0.2 0.7 0.3 0.2 0.1 0.4 0.3 0.6 0.5 0.2-0.2 0.3-0.4 0.5-0.5l0.6-0.3c0.2-0.1 0.4-0.1 0.5-0.1h0.4c0.4 0 0.8 0.1 1.2 0.2s0.7 0.4 1 0.7 0.5 0.7 0.7 1.2 0.3 1.1 0.3 1.9v11.2l-1.9-0.1z"/>
</svg>
