<svg xmlns="http://www.w3.org/2000/svg" width="76.601" height="50.2" viewBox="0 0 76.601 50.2">
    <g id="e57e9dfd7ece93066858eb29a7394ca8" transform="translate(-10 -178.882)">
        <g id="Groupe_22" data-name="Groupe 22" transform="translate(10 178.882)">
            <path id="Tracé_33" data-name="Tracé 33" d="M304.648-331.851a7.824,7.824,0,0,0-4.841,3.954,4.934,4.934,0,0,0-.567,3.032,5.13,5.13,0,0,0,.479,2.873,6.861,6.861,0,0,0,3.032,3.174,4.746,4.746,0,0,0,2.252.408,4.262,4.262,0,0,0,3.369-1.259,3.871,3.871,0,0,0,1.419-3.1,1.929,1.929,0,0,0-.461-1.543,1.847,1.847,0,0,0-2.305-.479c-.674.319-.709.408-.337.886a2.113,2.113,0,0,1,0,2,2.222,2.222,0,0,1-2.217.567,2.587,2.587,0,0,1-2.057-1.684,3.161,3.161,0,0,1-.39-2.11,4.262,4.262,0,0,1,3.085-3.918,4.517,4.517,0,0,1,4.947,1.419,6.434,6.434,0,0,1,1.472,7.731c-.461.94-1.188,1.774-4.061,4.7a31.361,31.361,0,0,0-3.635,4.061,3.706,3.706,0,0,0,.372,2.358l.319.461,4.468-4.5c4.983-5.036,5.337-5.533,5.887-8.3a9.41,9.41,0,0,0-2.766-8.511A7.423,7.423,0,0,0,304.648-331.851Z" transform="translate(-276.632 332.118)"/>
            <path id="Tracé_34" data-name="Tracé 34" d="M74.1-197.253c-2.873.088-3.068.106-4.079.6a10.108,10.108,0,0,0-3.954,4.043c-1.773,3.618-1.72,8.317.16,13.584,1.738,4.859,1.774,5.036,1.88,6.578a10.533,10.533,0,0,1-.833,5.089l-.514,1.135H63.887l-6.95-6.916L50-180.07l4.2-4.2c2.305-2.305,4.2-4.255,4.2-4.309s-1.33-1.437-2.944-3.085L52.5-194.628l-14.2,14.2-14.2,14.2H19.93l.035-2.855.053-2.837,1.188-.408a8.385,8.385,0,0,0,5.621-6.277,8.491,8.491,0,0,0-4.7-9.38c-1.383-.674-1.419-.674-3.617-.674s-2.234,0-3.617.674a8.436,8.436,0,0,0-4.7,9.38,8.384,8.384,0,0,0,5.621,6.277l1.188.408.053,2.837.035,2.855H10v8.511h1.383c.745.018,17.36.018,36.9.018l35.553.018.3-.6a27.621,27.621,0,0,0,2.092-5.941,18.465,18.465,0,0,0,.372-4.008c0-3.795-.621-6.472-2.731-11.686-2.021-5.017-2.428-6.435-2.535-8.758a6.913,6.913,0,0,1,.213-2.908,5.942,5.942,0,0,1,2.518-2.961c1.223-.709,1.436-1.436.692-2.305l-.425-.5H80.714C78.746-197.341,75.767-197.306,74.1-197.253Zm5.586,2.909a.518.518,0,0,1-.159.372,8.88,8.88,0,0,0-1.1,3.369c-.372,2.66.248,5.3,2.589,11.171,2.27,5.71,2.748,7.642,2.748,11.1a16.755,16.755,0,0,1-1.1,6.295l-.532,1.49H73.817c-4.965,0-8.316-.071-8.316-.159a4.405,4.405,0,0,1,.94-.975,12.193,12.193,0,0,0,4.5-10.2,18.147,18.147,0,0,0-1.578-6.721c-2.217-5.586-2.483-9.238-.851-12.448.869-1.738,2.287-3.121,3.44-3.369.3-.053,2.163-.124,4.149-.141C79.119-194.593,79.687-194.557,79.687-194.344Zm-26.066,4.8.976.975L43.425-177.392,32.254-166.222H28.175l12.147-12.146c6.685-6.685,12.182-12.146,12.235-12.146A8.8,8.8,0,0,1,53.621-189.539ZM20.9-185.407a6,6,0,0,1,2.8,2.855,6.452,6.452,0,0,1,0,4.469,6,6,0,0,1-2.8,2.855,5.713,5.713,0,0,1-6.543-1.276,4.972,4.972,0,0,1-1.436-3.813,4.968,4.968,0,0,1,1.436-3.812,5.474,5.474,0,0,1,4.149-1.774A4.539,4.539,0,0,1,20.9-185.407Zm33.159,13.334,5.851,5.851H36.155l5.851-5.851c3.209-3.227,5.923-5.851,6.029-5.851S50.855-175.3,54.064-172.073Zm9.841,8.76a5.882,5.882,0,0,1-.549.745,10.309,10.309,0,0,0-.886,1.348l-.337.674H12.837v-2.8H38.372C52.415-163.349,63.905-163.331,63.905-163.313Z" transform="translate(-10 207.875)"/>
        </g>
    </g>
</svg>
