<?xml version="1.0" encoding="utf-8"?>
<!-- Generator: Adobe Illustrator 27.2.0, SVG Export Plug-In . SVG Version: 6.00 Build 0)  -->
<svg version="1.1" id="Calque_1" xmlns="http://www.w3.org/2000/svg" xmlns:xlink="http://www.w3.org/1999/xlink" x="0px" y="0px"
	 viewBox="0 0 44.8 59.3" style="enable-background:new 0 0 44.8 59.3;" xml:space="preserve">
<path d="M27.7,59.3c-0.2,0-0.3,0-0.5,0c-3,0-5.8-0.5-8.6-1.6c-2.5-1-4.7-2.6-6.6-4.5c-1.9-2.1-3.5-4.4-4.5-7c-1.2-2.8-2-5.7-2.4-8.7
	H0V31h4.6c0-0.1,0-0.3,0-0.4v-2.3c0-0.3,0-0.5,0-0.8H0v-6.5h5.3c0.6-2.9,1.5-5.8,2.9-8.4c1.3-2.5,2.9-4.8,4.9-6.8
	c1.9-1.9,4.1-3.3,6.6-4.3c2.6-1,5.3-1.5,8-1.5c3.3-0.1,6.7,0.7,9.6,2.2c2.6,1.4,5,3.5,6.7,5.9l0.2,0.3l-3.7,4
	c-0.3,0.3-0.6,0.6-0.9,0.8c-0.5,0.3-1,0.5-1.6,0.4c-0.4,0-0.9-0.1-1.3-0.4c-0.3-0.2-0.7-0.5-1-0.8c-0.4-0.3-0.8-0.7-1.2-1
	c-0.5-0.4-1-0.7-1.5-1c-0.7-0.3-1.4-0.6-2.1-0.8c-0.9-0.2-1.9-0.3-2.9-0.3c-2.8-0.1-5.6,1.1-7.5,3.1c-2,2-3.4,4.9-4.2,8.6h19.8v3.5
	c0,0.8-0.3,1.5-0.9,2c-0.6,0.6-1.5,1-2.4,0.9l-17.3,0c0,0.3,0,0.6,0,0.8v2.3c0,0.1,0,0.3,0,0.4h16.8v3.5c0,0.8-0.3,1.5-0.9,2
	c-0.6,0.6-1.5,0.9-2.3,0.9h-13c0.7,4.1,2.1,7.3,4,9.3c1.9,2.1,4.6,3.3,7.4,3.2c1.5,0.1,3-0.2,4.4-0.7c1-0.4,1.9-1,2.7-1.6
	c0.7-0.6,1.3-1.2,1.8-1.7c0.5-0.6,1.2-0.9,1.9-0.9c0.3,0,0.7,0.1,1,0.2c0.4,0.2,0.6,0.4,0.9,0.7l4.5,4.1l-0.2,0.4
	c-1.8,2.8-4.3,5.1-7.2,6.7C34.4,58.5,31,59.3,27.7,59.3z M27.2,58.3c3.4,0.1,6.7-0.7,9.7-2.2c2.7-1.4,4.9-3.5,6.6-6l-3.9-3.6
	c-0.2-0.2-0.4-0.4-0.6-0.5C38.9,46,38.7,46,38.5,46c-0.5,0-0.9,0.2-1.2,0.6c-0.5,0.5-1.1,1.1-1.9,1.8c-0.9,0.7-1.9,1.4-2.9,1.8
	C31,50.7,29.4,51,27.7,51c-3.1,0-6.1-1.2-8.2-3.5c-2.2-2.3-3.6-5.8-4.4-10.4l-0.1-0.6h14.2c0.6,0,1.2-0.2,1.6-0.6
	c0.4-0.4,0.6-0.8,0.6-1.3V32H14.7l0-0.5c0-0.3,0-0.6,0-1v-2.3c0-0.4,0-0.9,0-1.4l0-0.5H33c0.6,0,1.2-0.2,1.6-0.6
	c0.4-0.4,0.6-0.8,0.6-1.3v-2.5h-20l0.1-0.6c0.9-4.2,2.4-7.5,4.6-9.7c2.2-2.2,5.2-3.4,8.2-3.4c1,0,2.1,0.1,3.1,0.3
	c0.8,0.2,1.6,0.5,2.3,0.8c0.6,0.3,1.2,0.7,1.7,1.1c0.5,0.4,0.9,0.7,1.2,1c0.4,0.3,0.7,0.6,1,0.8c0.2,0.2,0.4,0.2,0.7,0.2
	c0.4,0,0.7-0.1,1-0.2c0.2-0.2,0.5-0.4,0.7-0.7l3.2-3.4c-1.6-2.2-3.8-4-6.2-5.2c-2.8-1.4-6-2.2-9.2-2.1c-2.7,0-5.2,0.5-7.7,1.4
	c-2.3,1-4.5,2.4-6.3,4.1c-1.9,1.9-3.5,4.1-4.7,6.5c-1.4,2.7-2.3,5.6-2.8,8.6l-0.1,0.4H1v4.5h4.6l0,0.5c0,0.4,0,0.9,0,1.3v2.3
	c0,0.3,0,0.6,0,0.9l0,0.5H1v4.4h5L6,36.9c0.4,3.1,1.2,6,2.4,8.9c1,2.5,2.5,4.8,4.4,6.7c1.8,1.9,3.9,3.3,6.3,4.3
	C21.6,57.9,24.4,58.4,27.2,58.3z"/>
</svg>
