<svg xmlns="http://www.w3.org/2000/svg" width="79.264" height="50.2" viewBox="0 0 79.264 50.2">
    <g id="wood-svgrepo-com" transform="translate(1 -92.867)">
        <g id="Groupe_17" data-name="Groupe 17" transform="translate(-1 92.867)">
            <g id="Groupe_16" data-name="Groupe 16">
                <path id="Tracé_3" data-name="Tracé 3" d="M136.854,132.284a1.248,1.248,0,0,0,1.321-1.321,1.248,1.248,0,0,1,1.321-1.321,1.321,1.321,0,0,0,0-2.642,3.892,3.892,0,0,0-3.963,3.963A1.248,1.248,0,0,0,136.854,132.284Z" transform="translate(-114.396 -121.716)"/>
                <path id="Tracé_4" data-name="Tracé 4" d="M77.12,234.685a1.248,1.248,0,0,0,1.321-1.321,1.248,1.248,0,0,1,1.321-1.321,1.321,1.321,0,1,0,0-2.642,3.892,3.892,0,0,0-3.963,3.963A1.248,1.248,0,0,0,77.12,234.685Z" transform="translate(-63.91 -208.264)"/>
                <path id="Tracé_5" data-name="Tracé 5" d="M38.418,333.121A1.248,1.248,0,0,0,37.1,331.8a3.892,3.892,0,0,0-3.963,3.963,1.321,1.321,0,0,0,2.642,0,1.248,1.248,0,0,1,1.321-1.321A1.248,1.248,0,0,0,38.418,333.121Z" transform="translate(-27.85 -294.81)"/>
                <path id="Tracé_6" data-name="Tracé 6" d="M139.5,331.8a3.892,3.892,0,0,0-3.963,3.963,1.321,1.321,0,1,0,2.642,0,1.248,1.248,0,0,1,1.321-1.321,1.321,1.321,0,0,0,0-2.642Z" transform="translate(-114.396 -294.81)"/>
                <path id="Tracé_7" data-name="Tracé 7" d="M281.921,163.776h7.926a1.321,1.321,0,0,0,0-2.642h-7.926a1.321,1.321,0,0,0,0,2.642Z" transform="translate(-237.005 -150.565)"/>
                <path id="Tracé_8" data-name="Tracé 8" d="M290.455,129.642h1.321a1.321,1.321,0,0,0,0-2.642h-1.321a1.321,1.321,0,0,0,0,2.642Z" transform="translate(-244.218 -121.716)"/>
                <path id="Tracé_9" data-name="Tracé 9" d="M179.52,234.685a1.248,1.248,0,0,0,1.321-1.321,1.248,1.248,0,0,1,1.321-1.321,1.321,1.321,0,1,0,0-2.642,3.892,3.892,0,0,0-3.963,3.963A1.248,1.248,0,0,0,179.52,234.685Z" transform="translate(-150.457 -208.264)"/>
                <path id="Tracé_10" data-name="Tracé 10" d="M324.588,266.176h7.926a1.321,1.321,0,0,0,0-2.642h-7.926a1.321,1.321,0,1,0,0,2.642Z" transform="translate(-273.066 -237.113)"/>
                <path id="Tracé_11" data-name="Tracé 11" d="M333.121,232.043h1.321a1.321,1.321,0,1,0,0-2.642h-1.321a1.321,1.321,0,0,0,0,2.642Z" transform="translate(-280.278 -208.264)"/>
                <path id="Tracé_12" data-name="Tracé 12" d="M241.9,331.8a3.892,3.892,0,0,0-3.963,3.963,1.321,1.321,0,0,0,2.642,0,1.248,1.248,0,0,1,1.321-1.321,1.321,1.321,0,0,0,0-2.642Z" transform="translate(-200.943 -294.81)"/>
                <path id="Tracé_13" data-name="Tracé 13" d="M392.247,365.933h-7.926a1.321,1.321,0,0,0,0,2.642h7.926a1.321,1.321,0,1,0,0-2.642Z" transform="translate(-323.552 -323.659)"/>
                <path id="Tracé_14" data-name="Tracé 14" d="M392.855,334.443h1.321a1.321,1.321,0,1,0,0-2.642h-1.321a1.321,1.321,0,1,0,0,2.642Z" transform="translate(-330.765 -294.811)"/>
                <path id="Tracé_15" data-name="Tracé 15" d="M77.863,136.547a9.477,9.477,0,0,0,0-5.45,1.332,1.332,0,0,0-.278-.785,9.184,9.184,0,0,0-8.57-5.739H66.273a9.159,9.159,0,0,0,2.108-3.2,1.287,1.287,0,0,0,.235-.675,9.477,9.477,0,0,0,0-5.45,1.331,1.331,0,0,0-.278-.785,9.184,9.184,0,0,0-8.57-5.739h-.1a9.157,9.157,0,0,0,2.108-3.2,1.288,1.288,0,0,0,.235-.675,9.476,9.476,0,0,0,0-5.45,1.332,1.332,0,0,0-.278-.785,9.184,9.184,0,0,0-8.57-5.739H24.1A9.265,9.265,0,0,0,18.376,109.4a9.342,9.342,0,0,0-3.523-.683,9.27,9.27,0,0,0-6.5,15.855l-.1,0a9.247,9.247,0,1,0,0,18.495H69.017a9.183,9.183,0,0,0,8.612-5.846A1.287,1.287,0,0,0,77.863,136.547ZM59.769,111.362A6.559,6.559,0,0,1,65.085,114H58.448a1.321,1.321,0,1,0,0,2.642h7.8a6.9,6.9,0,0,1,0,2.642H63.732a1.321,1.321,0,0,0,0,2.642h1.352a6.559,6.559,0,0,1-5.316,2.642H37.21a9.151,9.151,0,0,0,1.869-2.642h4.838a1.321,1.321,0,0,0,0-2.642H39.86c.017-.121.033-.243.046-.367,0-.021,0-.042,0-.063.013-.135.024-.272.031-.409q.012-.239.012-.482t-.012-.482c-.007-.138-.018-.274-.031-.41,0-.021,0-.042,0-.063-.012-.124-.029-.245-.046-.367h6.7a1.321,1.321,0,1,0,0-2.642h-7.48a9.161,9.161,0,0,0-1.869-2.642h22.56ZM39.953,140.426a6.605,6.605,0,1,1,6.605-6.605A6.541,6.541,0,0,1,39.953,140.426Zm-15.853,0a6.605,6.605,0,1,1,6.605-6.605A6.541,6.541,0,0,1,24.1,140.426Zm6.605-29.064a6.605,6.605,0,1,1-6.605,6.605A6.541,6.541,0,0,1,30.706,111.362Zm0,15.853h2.744a9.159,9.159,0,0,0-1.423,1.8,9.158,9.158,0,0,0-1.425-1.806Zm-6.5-2.64-.1,0a9.342,9.342,0,0,0-3.523.683,9.162,9.162,0,0,0,2.2-2.486A9.144,9.144,0,0,0,24.2,124.575ZM53.164,95.509a6.559,6.559,0,0,1,5.316,2.642H51.843a1.321,1.321,0,0,0,0,2.642h7.8a6.9,6.9,0,0,1,0,2.642H57.127a1.321,1.321,0,0,0,0,2.642H58.48a6.559,6.559,0,0,1-5.316,2.642H30.6a9.151,9.151,0,0,0,1.869-2.642h4.838a1.321,1.321,0,1,0,0-2.642H33.254c.017-.122.033-.243.046-.367,0-.021,0-.042,0-.063.013-.135.024-.272.031-.409q.012-.239.012-.482t-.012-.482c-.007-.138-.018-.274-.031-.409,0-.021,0-.042,0-.063-.012-.124-.029-.245-.046-.367h6.7a1.321,1.321,0,0,0,0-2.642h-7.48A9.161,9.161,0,0,0,30.6,95.509ZM17.5,102.114A6.605,6.605,0,1,1,24.1,108.72,6.541,6.541,0,0,1,17.5,102.114Zm6.605,9.247h.1a9.159,9.159,0,0,0-1.423,1.8,9.155,9.155,0,0,0-2.2-2.486A9.342,9.342,0,0,0,24.1,111.362ZM8.247,117.967a6.605,6.605,0,1,1,6.605,6.605A6.541,6.541,0,0,1,8.247,117.967Zm6.605,9.247a9.342,9.342,0,0,0,3.523-.683,9.162,9.162,0,0,0-2.2,2.486,9.157,9.157,0,0,0-1.425-1.806ZM1.642,133.82a6.541,6.541,0,0,1,6.605-6.605,6.605,6.605,0,0,1,0,13.211A6.541,6.541,0,0,1,1.642,133.82Zm13.109,6.605a9.159,9.159,0,0,0,1.423-1.8,9.165,9.165,0,0,0,1.423,1.8Zm15.853,0a9.16,9.16,0,0,0,1.423-1.8,9.165,9.165,0,0,0,1.423,1.8Zm38.413,0H46.457a9.151,9.151,0,0,0,1.869-2.642h4.838a1.321,1.321,0,0,0,0-2.642H49.107c.017-.122.033-.243.046-.367,0-.021,0-.042,0-.063.013-.135.024-.272.031-.41q.012-.239.012-.482t-.012-.482c-.007-.138-.018-.274-.031-.409,0-.021,0-.042,0-.063-.012-.124-.029-.245-.046-.367h6.7a1.321,1.321,0,0,0,0-2.642h-7.48a9.161,9.161,0,0,0-1.869-2.642h22.56a6.559,6.559,0,0,1,5.316,2.642H67.7a1.321,1.321,0,1,0,0,2.642h7.8a6.9,6.9,0,0,1,0,2.642H72.98a1.321,1.321,0,1,0,0,2.642h1.352A6.558,6.558,0,0,1,69.017,140.426Z" transform="translate(1 -92.867)"/>
            </g>
        </g>
    </g>
</svg>
